<?xml version="1.0" encoding="UTF-8"?>
<svg width="378px" height="366px" viewBox="0 0 378 366" version="1.1" xmlns="http://www.w3.org/2000/svg" xmlns:xlink="http://www.w3.org/1999/xlink">
    <!-- Generator: Sketch 52.1 (67048) - http://www.bohemiancoding.com/sketch -->
    <title>Group 10</title>
    <desc>Created with Sketch.</desc>
    <defs>
        <polygon id="path-1" points="0 0.512060274 35.686125 0.512060274 35.686125 112.465649 0 112.465649"></polygon>
        <polygon id="path-3" points="1 0.5 1.5 0.5 1.5 1 1 1"></polygon>
        <polygon id="path-5" points="1 0.5 1.5 0.5 1.5 1 1 1"></polygon>
    </defs>
    <g id="Page-1" stroke="none" stroke-width="1" fill="none" fill-rule="evenodd">
        <g id="Innovation-site-updated" transform="translate(-1017.000000, -4065.000000)">
            <g id="Group-10" transform="translate(1017.000000, 4065.000000)">
                <ellipse id="Oval" fill="#F3F3F3" fill-rule="nonzero" cx="189" cy="253" rx="189" ry="113"></ellipse>
                <g id="Group-202" transform="translate(60.000000, 0.000000)">
                    <path d="M137.6545,56.6720785 L140.955786,42.2114913 C141.165439,41.2886566 140.60911,40.3549651 139.718833,40.137052 L139.348946,40.0463195 C138.45792,39.8276309 137.556413,40.4045965 137.346011,41.3282067 L134.044725,55.7887938 C133.833575,56.7116285 134.390653,57.6445446 135.281678,57.8632332 L135.650817,57.9539657 C136.542591,58.1718787 137.44335,57.5949132 137.6545,56.6720785" id="Fill-1" fill="#FBCBB4"></path>
                    <path d="M139.428398,62.8613366 L143.869554,50.8006892 C144.219599,49.8483543 143.840564,48.7340461 143.026691,48.3227528 L142.688966,48.1531473 C141.875092,47.742702 140.922795,48.1862204 140.5713,49.1377072 L136.130869,61.1992026 C135.780099,62.1515375 136.159134,63.2666937 136.973007,63.6771391 L137.310732,63.8467446 C138.124606,64.2571899 139.077628,63.8145195 139.428398,62.8613366" id="Fill-3" fill="#FBCBB4"></path>
                    <path d="M135.999369,62.1610599 L135.630896,49.7394757 C135.60284,48.757304 134.64425,47.9749367 133.501424,48.0006144 L133.026337,48.0094411 C131.883511,48.0351188 130.971681,48.8584099 131.000673,49.8389768 L131.367275,62.2613634 C131.396266,63.2427328 132.355792,64.0242975 133.498618,63.9994223 L133.973705,63.9889907 C135.116531,63.9641155 136.027425,63.1416268 135.999369,62.1610599" id="Fill-5" fill="#FBCBB4"></path>
                    <path d="M139.926645,64.9910179 L145.852861,52.4598283 C146.250928,51.6195357 145.813054,50.6388209 144.880086,50.281043 L144.491971,50.1316577 C143.559832,49.7746267 142.470954,50.169004 142.073717,51.0092966 L136.146671,63.5404862 C135.749434,64.3815257 136.187307,65.3614936 137.119447,65.7192715 L137.506732,65.8679099 C138.44053,66.2256878 139.529408,65.8313105 139.926645,64.9910179" id="Fill-7" fill="#FBCBB4"></path>
                    <path d="M142.926137,68.9907034 L148.852983,56.4595138 C149.251037,55.6192212 148.812349,54.6392534 147.880241,54.2807285 L147.492968,54.1320901 C146.559202,53.7743122 145.47119,54.1686895 145.073966,55.0089821 L139.14629,67.5409186 C138.749896,68.3819581 139.186925,69.3611791 140.120691,69.7197039 L140.507964,69.8683423 C141.440072,70.2253733 142.528913,69.830996 142.926137,68.9907034" id="Fill-9" fill="#FBCBB4"></path>
                    <path d="M134.154888,51 C134.093315,51.1407377 133.177109,52.6348392 132.177985,54.2506597 C130.45148,57.04183 129.468775,60.1753351 129.308686,63.3879576 L129,69.5408562 C129,69.5408562 139.528154,71.3004574 139.829451,70.9550796 C147.198502,62.5511391 144.528699,57.0152039 144.528699,57.0152039 L134.154888,51 Z" id="Fill-11" fill="#FBCBB4"></path>
                    <polygon id="Fill-13" fill="#FEFEFE" points="128 69.1116224 130.0407 64 145 70.2220011 141.826677 76"></polygon>
                    <path d="M144,73.2627651 C144,73.2627651 130.811455,105.406717 130.771627,105.515788 C126.893725,115.450415 117.056889,123.101412 106.366807,121.869595 C104.764482,121.68425 100.77169,120.65532 99.0682622,120.051996 C96.9259566,119.291549 73.7573472,104.843055 73.7573472,104.843055 L71,78.6301331 C71,78.6301331 99.5921581,98.5832873 101.242737,99.6228954 C104.067486,101.401594 107.876454,102.204754 109.376911,101.635754 C112.014007,100.672419 113.188177,99.462721 114.504045,97.2568907 C120.999895,86.403168 127.125035,66 127.125035,66 L144,73.2627651 Z" id="Fill-15" fill="#15224A"></path>
                    <path d="M71.5778606,320.111137 C71.4861486,321.396223 71,339.74703 71,339.74703 L84,340 L83.7114425,317 L71.5778606,320.111137 Z" id="Fill-17" fill="#5B153A"></path>
                    <path d="M66.0108159,197 C65.9888616,197.153354 66.0005705,197.997189 66.0437474,199.443653 C66.6679831,220.59963 70.1894624,336 70.1894624,336 L86.6471823,335.410472 L91,200.316001 L66.0108159,197 Z" id="Fill-19" fill="#11163F"></path>
                    <path d="M69,350.738735 L105.07968,350.999895 C107.23039,351.01558 108.985783,349.27373 108.999901,347.109946 C109.011666,345.443385 107.973177,343.952499 106.412304,343.391751 L88.6018889,337 L69.0878481,337.337233 L69,350.738735 Z" id="Fill-21" fill="#656374"></path>
                    <path d="M95.1662689,345 L100,340.263331 M92.1495625,343.384671 L96.4431185,339.206822 M89,342.177129 L93.2935561,338" id="Stroke-23" stroke="#11163F" stroke-width="1.18" stroke-linecap="round"></path>
                    <path d="M41.2467599,320.338861 C41.1766831,321.626473 41,339.988252 41,339.988252 L54,340 L53.3245785,317 L41.2467599,320.338861 Z" id="Fill-25" fill="#5B153A"></path>
                    <path d="M34.005937,197 C33.9869468,197.152486 34.0139713,197.99116 34.0804371,199.425917 C35.0569731,220.431274 40.4969434,335 40.4969434,335 L56.9110748,334.108187 L59,199.828696 L34.005937,197 Z" id="Fill-27" fill="#11163F"></path>
                    <path d="M38,351.48175 L73.9644064,352.996717 C76.1090477,353.08799 77.9148968,351.265083 77.9970519,348.927803 C78.0612112,347.127074 77.0730018,345.479036 75.5347439,344.81965 L57.9809213,337.302823 L38.5140567,337 L38,351.48175 Z" id="Fill-29" fill="#777384"></path>
                    <path d="M63.0300633,345 L68,340.435813 M60.0886076,343.310518 L64.5023734,339.286506 M57,342.023294 L61.4137658,338" id="Stroke-31" stroke="#11163F" stroke-width="1.177" stroke-linecap="round"></path>
                    <path d="M91.9249618,193.926828 C92.2968957,197.771167 91.2673395,201.42644 89.2552,204.391545 C86.6840046,208.195919 82.4833842,210.86974 77.5404362,211.346248 L50.7812142,213.926305 C49.985753,214.003929 49.2018426,214.020069 48.4287128,213.975493 C46.4373647,213.885571 44.5284119,213.412906 42.7788593,212.635123 C42.4669892,212.502931 42.1620496,212.35383 41.8640404,212.194738 C37.2314223,209.785302 33.8693859,205.153957 33.3288112,199.578821 L33,191.057024 L90.591236,185 L91.9249618,193.926828 Z" id="Fill-33" fill="#11163F"></path>
                    <path d="M59.5746212,83.3087146 L54.1305914,83.9587301 C50.7884176,84.3582595 47.7433259,81.8112599 47.3645462,78.2997715 L45.0391359,56.8000986 C44.6596135,53.2886102 47.0838036,50.0900344 50.4259774,49.6905051 L55.8700072,49.0412699 C59.212181,48.6417405 62.2565301,51.1887401 62.6360525,54.7002285 L64.96072,76.1991211 C65.3409851,79.7113898 62.9167951,82.9099656 59.5746212,83.3087146" id="Fill-35" fill="#F6AB92"></path>
                    <path d="M86.9706604,27.4597425 C86.9891907,27.8858841 86.9992279,28.311262 87,28.7389309 C86.992279,30.7932693 86.7714598,32.8147688 86.3460354,34.7576078 C84.5331561,43.0711868 79.0644065,50.1048137 71.6106004,54.027149 C67.9099485,55.9791523 63.7174721,57.1582967 59.2454973,57.3484567 C52.0047894,57.6569893 46.1144758,61.1195804 40.854964,56.9895202 C39.1594431,55.659928 37.616025,54.1577408 36.2664028,52.4913592 C35.7367455,51.8345819 35.2317953,51.1686403 34.7615894,50.4744419 C31.892484,46.2428103 29.2650444,35.3830736 29.0272391,29.9249486 C28.3586047,14.5319209 40.0790084,1.44983307 55.43598,0.10954911 C55.8753021,0.0736554653 56.3138522,0.046162461 56.7531743,0.0270700969 C66.5062796,-0.388379746 75.3344151,4.00897355 80.9066254,11.0945317 L80.9158906,11.1029324 C82.5473275,13.1847637 83.898494,15.5041041 84.913799,17.9945121 C86.106686,20.9309177 86.8262786,24.1223973 86.9706604,27.4597425" id="Fill-37" fill="#E98A31"></path>
                    <path d="M48.9897095,37.8858109 C49.0311671,38.5269287 48.9474058,39.1562612 48.7375795,39.7463095 C48.5040632,40.452639 48.1089468,41.2186804 47.5759204,41.7812298 C46.6088583,42.7908331 45.2458336,43.5725882 43.6772131,43.6605847 L40.3047636,43.8499344 L37.7200087,44 L37.2326702,36.8730649 L37.2419771,36.8722792 L37.1463707,35.554688 L37.0778388,34.5301567 L37.0203058,33.5936219 L37,33.3516314 L37.0084607,33.3508457 L42.9580505,33.0106448 C44.4606773,32.9226482 45.8617752,33.3854158 46.9405191,34.2064551 C47.594534,34.7053641 48.1250222,35.3488389 48.4854496,36.0693107 C48.7798832,36.6326457 48.9482519,37.235265 48.9897095,37.8858109" id="Fill-39" fill="#FAC8C0"></path>
                    <path d="M85.1543407,30.0791513 L85.8485677,41.3324059 L85.9537305,43.0162899 C86.0276493,44.1248149 86.008598,45.2356413 85.9278208,46.311179 C85.1360515,56.4121814 77.8470495,64.9290288 67.9937515,67.3179193 C67.6988384,67.4023053 67.3924945,67.4629097 67.0937712,67.5143085 C66.0345226,67.7459864 64.9569848,67.8779354 63.848203,67.9538827 C62.7714273,68.0259944 61.7197992,68.0091172 60.6689332,67.933937 C58.6205445,67.7920151 56.6338819,67.380058 54.7561923,66.7341217 L54.7394272,66.7272174 C46.5618757,63.9186984 40.3298361,56.7359168 39.0419727,47.8692512 C39.0023461,47.6015175 38.9657678,47.3414552 38.9421442,47.0706529 C38.8910869,46.7614933 38.8720357,46.4400595 38.8522224,46.1178584 L38.8339332,45.9490865 L38.7805898,45.1873112 L38.6655203,43.180459 L38.2258179,36.2899598 L38.227342,36.2216838 L38.2258179,36.2124781 L38.1488509,34.934414 L38.0871249,33.9340565 L38.0353055,33.0196193 L38.0246368,32.7818042 C37.9385253,31.1884434 38.0833146,29.6203984 38.3782277,28.1037521 C38.5717883,27.0404887 38.8430778,25.9956368 39.1608524,24.9860735 C39.201241,24.8203701 39.2446778,24.6784482 39.2957351,24.5280878 C39.5571181,23.6957351 39.8794649,22.866451 40.2391522,22.0739899 L40.2452486,22.0571127 C41.6062688,19.0360944 43.5967416,16.3273043 46.0589231,14.1271315 C46.551969,13.6875573 47.0625421,13.2617916 47.5845459,12.8613418 C51.2294279,10.1080572 55.6721756,8.34669158 60.5340504,8.04597062 C67.0373796,7.64398647 73.1619702,9.90169514 77.7053084,13.9015908 C80.1385319,16.0365562 81.8760044,18.6686318 83.2621722,21.6405528 C83.7963688,22.7728593 84.1926344,23.9557974 84.4738307,25.1763256 C84.8464728,26.7451377 85.0560364,28.3845273 85.1543407,30.0791513" id="Fill-41" fill="#FBCBB4"></path>
                    <path d="M40.3834935,36 L40.7535282,43.0872901 L41,47.8723395 L39.4191806,47.9914209 C39.3041168,47.9984257 39.189053,48.0054305 39.0792194,47.9937559 C36.4242534,47.9727415 34.1798559,45.394979 34.0105291,42.2513853 C33.9196549,40.620826 34.4230589,39.1848442 35.286691,38.0298323 C36.0601027,37.0001282 37.1479784,36.3595792 38.3803377,36.1766764 L38.3868754,36.175898 C38.5287438,36.1393175 38.6509991,36.1221947 38.7954826,36.1190814 L40.3834935,36 Z" id="Fill-43" fill="#FAC8C0"></path>
                    <path d="M64,67.8552647 C64,67.8552647 59.8599305,68.618762 55.582264,66.6386097 L55.5647793,66.6316618 C47.4077932,63.8054093 41.1900869,56.5772745 39.9061028,47.6546234 C36.8189154,47.6337797 34.209136,45.0769515 34.0122432,41.9588872 C33.9065749,40.3407978 34.4919318,38.9172497 35.4961609,37.7716178 C36.3947217,36.7502761 37.6604609,36.114929 39.0926848,35.9327395 L39.0911644,35.9242476 L39.015144,34.6381136 L38.9535675,33.6314397 L38.9011134,32.7112286 L38.8836287,32.4734559 L38.8912308,32.471912 C38.8045676,30.8684904 38.9497665,29.2905445 39.2439653,27.7635499 C42.1965966,25.612016 45.3704472,24.9025579 47.6449768,28.6992008 C47.6449768,28.6992008 47.6655023,30.5334471 47.8152624,33.3133802 C47.921691,35.394663 48.0942572,38.0008986 48.3861755,40.755356 C48.9692517,46.4202127 50.0107308,52.7103807 51.8755106,56.3827332 C55.8437741,64.2222835 64,67.8552647 64,67.8552647" id="Fill-45" fill="#F6AB92"></path>
                    <path d="M85.3819215,14.4029765 L46.6444973,18.9730603 C44.4147908,19.234979 42.3845884,17.5571122 42.1315775,15.2434973 L42.0260926,14.2831289 C41.7730817,11.9687204 43.3889883,9.8598783 45.6179304,9.59716595 L84.3568833,5.02708216 C86.5850611,4.7643698 88.6160279,6.44303032 88.8690388,8.75743885 L88.9737593,9.71780727 C89.2275346,12.0322158 87.611628,14.1402642 85.3819215,14.4029765" id="Fill-47" fill="#E98A31"></path>
                    <path d="M93.7422951,17.1972754 C94.3435701,19.1760506 93.8516874,21.1722968 92.6927412,22.6178281 C91.7403399,23.8058529 90.3220652,24.6414201 88.6934208,24.8252449 L54.1874248,28.7174692 C49.237998,29.27578 45.6816016,33.7126422 46.2438626,38.6265374 L46.8772668,44.1655887 C47.0884016,46.0038367 45.74586,47.6795289 43.8938411,47.8876611 L43.0967309,47.9780543 C41.2370622,48.1884653 39.558694,46.8621922 39.3475593,45.0155885 L37.4381668,28.3270314 C37.4236322,28.1941002 37.4175123,28.0687651 37.4198073,27.9411512 C36.6747158,27.0797573 36.1759482,25.987443 36.0382517,24.7872646 C35.8523613,23.1617065 36.3549538,21.6105898 37.3073551,20.4142094 C38.2589914,19.225425 39.6772661,18.3898578 41.3059105,18.2067926 L87.0969055,13.040708 C90.0191328,12.7117984 92.8946962,14.4011635 93.7422951,17.1972754" id="Fill-49" fill="#E98A31"></path>
                    <path d="M83.8418921,33.006479 L75.4852125,33.9914026 C74.7726081,34.0750607 74.1223669,33.5386137 74.0408789,32.7994899 L74.00845,32.4915934 C73.926962,31.7524696 74.4441614,31.0788922 75.1575974,30.9943717 L83.5134455,30.0085857 C84.2268814,29.9249275 84.8762911,30.462237 84.9577791,31.2013608 L84.991871,31.5092573 C85.071696,32.2483811 84.5544966,32.9219585 83.8418921,33.006479" id="Fill-51" fill="#E98A31"></path>
                    <path d="M65.8417493,34.0071274 L57.4860224,34.9914007 C56.7725968,35.0750769 56.1231966,34.5385142 56.0425413,33.799231 L56.0084499,33.4912681 C55.926963,32.7528475 56.444155,32.0782623 57.1575806,31.9937235 L65.5133074,31.0085875 C66.226733,30.9249113 66.8761332,31.4623366 66.95762,32.2016199 L66.9917115,32.5095827 C67.0723668,33.2480034 66.5551748,33.9225886 65.8417493,34.0071274" id="Fill-53" fill="#E98A31"></path>
                    <path d="M68,52.552428 C69.390219,54.5323079 71.0873695,55.1210259 72.9226784,54.980161 C75.1104482,54.8120947 77.4536463,53.2625812 78,51 L68,52.552428 Z" id="Fill-55" fill="#FEFEFE"></path>
                    <path d="M76,46.3412861 L75.8533541,46.354359 C75.9555382,47.6314241 75.0109204,48.768772 72.3954758,49 L71,39 C74.1833073,42.3679222 75.5834633,44.2814772 76,46.3412861" id="Fill-57" fill="#F6AB92"></path>
                    <polygon id="Fill-59" fill="#EBECEE" points="79 181.806184 53.6621983 184 44 74.193816 69.3385823 72"></polygon>
                    <polygon id="Fill-61" fill="#DE3A36" points="58.7455839 85 52 76.8509193 57.2389598 73 64 75.7866625"></polygon>
                    <polygon id="Fill-63" fill="#FEFEFE" points="69 79.2307461 57.4765391 73.3113002 44.7207788 82 44 72.8889558 68.275471 71"></polygon>
                    <polygon id="Fill-65" fill="#9B97AA" points="79 185.659958 53.4557577 188 53 183.339371 78.5442423 181"></polygon>
                    <polygon id="Fill-67" fill="#16214A" points="74 186.243309 64.5011243 187 64 181.756691 73.4988757 181"></polygon>
                    <path d="M54,198.909135 C54,198.909135 48.82089,200.684481 40.9679418,201.536616 C38.1142994,201.854139 34.9032961,202.048825 31.460795,201.989337 C31.2547693,201.989337 31.0562355,201.912854 30.8659428,201.854139 L25.3047488,126.418139 C23.840843,113.789848 24.2708747,107.09174 24.113546,96.6745196 C24.0895721,95.2414179 24.0558589,93.7395583 24.0064127,92.1434461 C23.9726994,91.1962857 24.0730901,90.309385 24.2798649,89.4642027 C25.3549442,85.0366524 29.4170206,81.9471788 33.8604318,79.6434003 C36.53427,78.2612877 39.3467073,77.1603874 41.7208718,76.2387215 C42.8304136,75.8037694 42.1598938,76.1715087 43.3510965,76 L54,198.909135 Z" id="Fill-69" fill="#15224A"></path>
                    <path d="M94,194.586811 L89.4814144,195.01881 L79.1004344,196 C79.1004344,196 66.9994089,76.595076 68.0666615,77.0010328 C69.8796418,77.6949892 71.8335235,78.7688599 73.7529293,80.1736237 C77.6936695,83.041364 81.4935085,87.2970171 83.6197694,92.4741156 C84.2328401,93.9455176 84.7050094,95.5019407 84.9943068,97.1181085 C85.0107953,97.1770871 85.0272837,97.2444912 85.0355279,97.3034699 C86.8402641,107.506773 94,194.586811 94,194.586811" id="Fill-71" fill="#15224A"></path>
                    <path d="M57,85 L67,182" id="Stroke-73" stroke="#9B97AA" stroke-width="1.177"></path>
                    <path d="M48.9852618,136.980041 C49.5009154,137.984768 36.3141324,100.722076 36.3141324,100.722076 L40.6188212,96.5054297 L33,81.5681345 L43.1124531,75 C43.1124531,75 48.1200922,135.293535 48.9852618,136.980041" id="Fill-75" fill="#2D3768"></path>
                    <path d="M73.5610649,135.977431 C73.24,137.079323 79,97.4664648 79,97.4664648 L74.1001664,93.9001014 L77.7357072,79.7397011 L67,72 C67,72 74.1017637,134.129272 73.5610649,135.977431" id="Fill-77" fill="#2D3768"></path>
                    <path d="M38.7180106,207.043277 C38.7799664,206.908028 45.9562643,200.502168 44.8924375,199.004309 C43.120652,196.509083 40.7141971,193.937192 38.2329418,191.900509 L33.483499,188 C33.483499,188 27.4669839,193.92128 27.1420936,194.219984 C22.6132739,198.366399 33.0150525,205.007317 33.0150525,205.007317 C33.0150525,205.007317 37.3345824,210.050567 38.7180106,207.043277" id="Fill-79" fill="#F6AB92"></path>
                    <path d="M38.6205499,199.391351 L50.6126834,209.553329 C51.3783829,210.201154 52.5638235,210.136528 53.2459028,209.41006 L53.5287361,209.107949 C54.2116351,208.381482 54.144411,207.257132 53.3787114,206.608528 L41.3873978,196.447328 C40.6216982,195.798725 39.4362577,195.863351 38.7541784,196.589819 L38.4713451,196.891151 C37.788446,197.618397 37.8556702,198.742747 38.6205499,199.391351" id="Fill-81" fill="#F6AB92"></path>
                    <path d="M38.5895636,204.377424 L47.7856503,212.554363 C48.5130288,213.200238 49.6363812,213.136658 50.2836313,212.411697 L50.5528003,212.113184 C51.2008284,211.388223 51.1370369,210.267829 50.4104364,209.62273 L41.2143497,201.44579 C40.4877492,200.799916 39.3636188,200.863495 38.7155907,201.586906 L38.4471997,201.887745 C37.7991716,202.611155 37.8629631,203.731549 38.5895636,204.377424" id="Fill-83" fill="#F6AB92"></path>
                    <path d="M31.6446133,205.263947 L43.485599,214.569277 C44.2791943,215.193429 45.5091393,215.131988 46.2176762,214.432159 L46.5111278,214.142187 C47.2196646,213.442358 47.1499167,212.359645 46.3546202,211.736243 L34.5144851,202.430164 C33.7191887,201.806762 32.4909448,201.868203 31.7832586,202.567283 L31.4889564,202.857255 C30.7804195,203.557833 30.8501675,204.639796 31.6446133,205.263947" id="Fill-85" fill="#F6AB92"></path>
                    <path d="M33.0369741,191.839993 L46.4982808,197.859862 C47.3572596,198.244025 48.3555523,197.810753 48.7168746,196.897475 L48.8673635,196.518857 C49.2294309,195.601619 48.8248988,194.544974 47.9621951,194.160019 L34.5008884,188.14015 C33.6419097,187.755987 32.643617,188.189259 32.2815497,189.101745 L32.1318057,189.480363 C31.7704834,190.394432 32.1779954,191.456622 33.0369741,191.839993" id="Fill-87" fill="#F6AB92"></path>
                    <polygon id="Fill-89" fill="#FEFEFE" points="37 187.992213 35.5336668 186.750107 32.2752376 184 22.9505753 193.921656 21 196.003988 21.6267134 196.531979 22.9977989 197.700394 25.7175588 200 26.2378189 199.444661 32.8075038 192.449361 35.4696348 189.622525 35.6625313 189.419686"></polygon>
                    <g id="Group-93" transform="translate(1.000000, 85.000000)">
                        <mask id="mask-2" fill="white">
                            <use xlink:href="#path-1"></use>
                        </mask>
                        <g id="Clip-92"></g>
                        <path d="M30.693375,12.185889 L26.521125,1.5112589 L25.379625,0.512060274 C25.237875,0.684656164 23.294625,3.06152603 20.552625,6.93758082 C18.213375,10.2494096 15.283875,14.6618274 12.391875,19.7414096 C3.537375,35.295163 -0.604125,49.223574 0.070875,61.1497178 C1.476375,85.9354164 19.588125,111.395245 20.358375,112.465649 L21.427875,111.642916 L23.398125,110.138314 L31.510875,103.931053 L32.653125,103.065752 L34.459125,101.677245 L35.686125,100.741512 C35.541375,100.53254 20.197125,78.8736904 19.123125,59.9949507 C18.307125,45.607574 25.228875,34.7255192 32.303625,25.1499301 C33.314625,23.7908342 29.929875,13.1131082 30.693375,12.185889" id="Fill-91" fill="#15224A" mask="url(#mask-2)"></path>
                    </g>
                    <polygon id="Fill-94" fill="#DE3A36" points="56 81 58.0640377 148.368662 64.6664176 157 69 147.94777 59.3023109 81"></polygon>
                    <path d="M59,42 C59,42 60.2448936,40.1010369 62.5640038,40.0051526 C64.8823655,39.9087009 66,41.1983164 66,41.1983164" id="Stroke-96" stroke="#11163F" stroke-width="1.545" stroke-linecap="round"></path>
                    <path d="M77,38 C77,38 77.7537313,36.1156311 79.6776119,36.0065645 C81.6014925,35.8974978 83,37.1836201 83,37.1836201" id="Stroke-98" stroke="#11163F" stroke-width="1.408" stroke-linecap="round"></path>
                    <g id="Group-102" transform="translate(0.000000, 353.000000)">
                        <mask id="mask-4" fill="white">
                            <use xlink:href="#path-3"></use>
                        </mask>
                        <g id="Clip-101"></g>
                        <path d="" id="Fill-100" fill="#15224A" mask="url(#mask-4)"></path>
                    </g>
                    <g id="Group-105" transform="translate(0.000000, 353.000000)">
                        <mask id="mask-6" fill="white">
                            <use xlink:href="#path-5"></use>
                        </mask>
                        <g id="Clip-104"></g>
                        <path d="" id="Fill-103" fill="#FEFEFE" mask="url(#mask-6)"></path>
                    </g>
                    <path d="M195.422139,322.11181 C195.514597,323.396853 196,341.746261 196,341.746261 L183,342 L183.288557,319 L195.422139,322.11181 Z" id="Fill-106" fill="#5B153A"></path>
                    <path d="M200.989158,199 C201.011112,199.153354 200.999403,199.997189 200.956958,201.443653 C200.331991,222.6004 196.810516,338 196.810516,338 L180.352813,337.411242 L176,202.316001 L200.989158,199 Z" id="Fill-108" fill="#11163F"></path>
                    <path d="M198,351.738735 L161.921104,351.999895 C159.76961,352.01558 158.014217,350.272946 158.000099,348.109162 C157.988334,346.442601 159.026823,344.951715 160.58848,344.391751 L178.398111,338 L197.912936,338.337233 L198,351.738735 Z" id="Fill-110" fill="#656374"></path>
                    <path d="M169,343.262612 L173.833285,348 M172.557139,342.206103 L176.851005,346.383952 M175.706133,341 L180,345.177129" id="Stroke-112" stroke="#11163F" stroke-width="1.18" stroke-linecap="round"></path>
                    <path d="M225.753226,321.338078 C225.824052,322.62569 226,340.988252 226,340.988252 L213,341 L213.67546,318 L225.753226,321.338078 Z" id="Fill-114" fill="#5B153A"></path>
                    <path d="M234.993986,200 C235.012977,200.152487 234.986682,200.990396 234.919484,202.42593 C233.943653,223.431405 228.50281,338 228.50281,338 L212.088249,337.108182 L210,202.827941 L234.993986,200 Z" id="Fill-116" fill="#11163F"></path>
                    <path d="M229,352.481031 L193.036315,353.996775 C190.890888,354.087191 189.085036,352.265227 189.002881,349.927211 C188.939504,348.126571 189.926932,346.479468 191.465193,345.820115 L209.019045,338.303661 L228.486725,338 L229,352.481031 Z" id="Fill-118" fill="#777384"></path>
                    <path d="M199,343.43675 L203.969937,348 M202.498418,342.28696 L206.912184,346.310147 M205.586234,341 L210,345.023187" id="Stroke-120" stroke="#11163F" stroke-width="1.177" stroke-linecap="round"></path>
                    <path d="M175.075274,195.927481 C174.702571,199.771769 175.732893,203.426995 177.744255,206.392062 C180.31544,210.195617 184.516814,212.869404 189.459742,213.346674 L216.218087,215.926697 C217.014315,216.003552 217.798222,216.02046 218.571349,215.975116 C220.562689,215.885964 222.470864,215.413306 224.22041,214.635533 C224.533049,214.503342 224.837987,214.354243 225.135995,214.194385 C229.768595,211.78498 233.130618,207.154464 233.67042,201.578631 L234,193.056945 L176.408224,187 L175.075274,195.927481 Z" id="Fill-122" fill="#11163F"></path>
                    <path d="M208.426016,85.3086992 L213.869343,85.9587292 C217.211541,86.3582674 220.256654,83.8112111 220.635437,80.2996444 L222.960864,58.7994921 C223.340389,55.2887058 220.916181,52.0900587 217.574726,51.6905205 L212.130657,51.0412708 C208.787717,50.6417326 205.743346,53.1887889 205.36382,56.7003556 L203.039136,78.1997275 C202.659611,81.7112942 205.083819,84.9099413 208.426016,85.3086992" id="Fill-124" fill="#F6AB92"></path>
                    <path d="M181.02934,29.460102 C181.011581,29.8862387 181.000772,30.3116117 181,30.7392758 C181.007721,32.7935908 181.22854,34.8150672 181.653964,36.7578841 C183.466841,45.0713683 188.936357,52.1049151 196.390156,56.0272057 C200.090032,57.9784231 204.282504,59.1583177 208.755246,59.3484755 C215.995175,59.6570046 221.885482,63.1195563 227.144988,58.9895431 C228.840508,57.6599661 230.384696,56.157796 231.733545,54.4906697 C232.263974,53.8346636 232.768151,53.1679658 233.238357,52.4745391 C236.107459,48.242192 238.734896,37.3825791 238.972701,31.9252799 C239.642107,16.5316641 227.920943,3.45048896 212.563987,2.11022028 C212.125438,2.07356336 211.686116,2.04683435 211.246795,2.02697852 C201.493699,1.6122971 192.665573,6.0088366 187.093368,13.094314 L187.084103,13.1027146 C185.452668,15.1845222 184.101503,17.5045998 183.086971,19.9942158 C181.894085,22.9305879 181.174493,26.1220311 181.02934,29.460102" id="Fill-126" fill="#11163F"></path>
                    <path d="M218.01029,39.8861599 C217.968835,40.5273235 218.052591,41.1559152 218.262402,41.7460056 C218.495902,42.4531713 218.89099,43.2184817 219.424825,43.7810713 C220.391819,44.7915324 221.753902,45.5725576 223.323258,45.6605605 L226.694623,45.8499237 L229.280042,46 L229.7665,38.8725558 L229.75804,38.8717701 L229.852794,37.5540847 L229.921321,36.530266 L229.979696,35.5936643 L230,35.3516565 L229.99154,35.3508708 L224.04237,35.0106455 C222.539003,34.9226427 221.138004,35.3854433 220.059336,36.2065412 C219.405367,36.7047002 218.874916,37.3482209 218.51536,38.0687442 C218.220101,38.6321195 218.051744,39.2347818 218.01029,39.8861599" id="Fill-128" fill="#FAC8C0"></path>
                    <path d="M181.845651,34.0790518 L181.151431,45.3322621 L181.046269,47.0169066 C180.972351,48.1254272 180.991402,49.2362493 181.072178,50.3110156 C181.86394,60.4127454 189.15287,68.9295591 199.00607,71.3176731 C199.300981,71.4020587 199.608083,71.4634301 199.906804,71.5148287 C200.96528,71.7465056 202.042807,71.8784541 203.15234,71.9536341 C204.228343,72.0257454 205.280723,72.0096354 206.331578,71.9336884 C208.379947,71.7925342 210.365828,71.3805788 212.243499,70.7338778 L212.260263,70.7269735 C220.438496,67.9184656 226.670474,60.7357123 227.958325,51.8698488 C227.997189,51.6021161 228.034529,51.3412877 228.05739,51.0704865 C228.109209,50.7613282 228.127498,50.4398955 228.148073,50.1176958 L228.1656,49.9489245 L228.218943,49.1879193 L228.334773,47.1803079 L228.773709,40.290603 L228.772947,40.2215602 L228.773709,40.2131216 L228.850676,38.9342954 L228.912401,37.934709 L228.964982,37.0202754 L228.975651,36.7824613 C229.060999,35.1891067 228.916973,33.6203007 228.622063,32.1044276 C228.427742,31.0411683 228.156456,29.9955534 227.837922,28.9867613 C227.798296,28.8202914 227.75486,28.6783701 227.704565,28.5280102 C227.442422,27.6964279 227.120841,26.8671471 226.760395,26.0746891 L226.755061,26.057812 C225.393292,23.0360385 223.402839,20.3280262 220.940682,18.1270949 C220.448403,17.6882896 219.937073,17.2625256 219.415074,16.8620773 C215.770228,14.1088036 211.327524,12.3466778 206.465698,12.045958 C199.962433,11.6439754 193.837903,13.9024423 189.295372,17.9015551 C186.86141,20.0365121 185.123955,22.6693445 183.737801,25.6404866 C183.203609,26.7735557 182.80811,27.955722 182.526916,29.1770126 C182.153516,30.7450514 181.943954,32.3852016 181.845651,34.0790518" id="Fill-130" fill="#FBCBB4"></path>
                    <path d="M227.616506,40 L227.246472,47.0868379 L227,51.8728858 L228.580819,51.9919727 C228.695883,51.9981994 228.811601,52.0052045 228.921434,51.9943077 C231.5764,51.9732924 233.820144,49.3954113 233.989471,46.2516729 C234.080345,44.6202603 233.576941,43.1849907 232.713962,42.0299257 C231.939897,40.9993959 230.852675,40.3595957 229.620316,40.1759061 L229.613778,40.1751278 C229.471256,40.1385455 229.349655,40.1222003 229.204517,40.1190869 L227.616506,40 Z" id="Fill-132" fill="#FAC8C0"></path>
                    <path d="M204,71.8552633 C204,71.8552633 208.139414,72.6187678 212.417189,70.6385968 L212.434674,70.6316488 C220.592627,67.8053697 226.810491,60.5771665 228.094508,51.6552031 C231.181773,51.6343592 233.791619,49.0775068 233.987756,45.959413 C234.093427,44.3405363 233.508055,42.9177468 232.504561,41.772104 C231.605217,40.7499807 230.340206,40.1153996 228.907946,39.9324364 L228.908706,39.9247164 L228.984729,38.6377983 L229.046307,37.6318868 L229.099522,36.711667 L229.117007,36.4738921 L229.109405,36.4723481 C229.19531,34.8689114 229.050868,33.2901786 228.756662,31.7639415 C225.803195,29.6123873 222.630025,28.9021505 220.354677,32.6988293 C220.354677,32.6988293 220.334911,34.5330929 220.184387,37.3138243 C220.077956,39.3951268 219.906146,42.000615 219.61422,44.7550985 C219.030369,50.4200087 217.988863,56.7102361 216.124036,60.3826234 C212.155672,68.2230198 204,71.8552633 204,71.8552633" id="Fill-134" fill="#F6AB92"></path>
                    <path d="M181.617942,16.4026598 L220.356252,20.972906 C222.585202,21.2356277 224.61541,19.5577012 224.868422,17.2432105 L224.973907,16.282808 C225.226919,13.9691109 223.611007,11.8594002 221.382058,11.5974723 L182.643748,7.02722615 C180.414798,6.76371075 178.38459,8.4432246 178.130814,10.7577153 L178.026093,11.7181179 C177.773081,14.0318149 179.388993,16.1407319 181.617942,16.4026598" id="Fill-136" fill="#11163F"></path>
                    <path d="M173.257352,19.196534 C172.656838,21.1760772 173.147959,23.1715722 174.307677,24.6178693 C175.259319,25.805899 176.678367,26.6407102 178.306257,26.8245358 L212.813228,30.7175361 C217.762684,31.2750897 221.319102,35.7119707 220.756073,40.6266463 L220.122665,46.1657211 C219.912294,48.0039768 221.254844,49.6796761 223.106109,49.8878092 L223.903224,49.9782028 C225.762904,50.1878551 227.441282,48.8615763 227.652418,47.0149649 L229.562587,30.3270967 C229.577122,30.194165 229.583242,30.0680697 229.580182,29.9412149 C230.326043,29.0790577 230.824049,27.9867388 230.961746,26.7865553 C231.147638,25.1609903 230.645042,23.6106266 229.6934,22.4134816 C228.740993,21.2254518 227.32271,20.389881 225.694055,20.206815 L179.902782,15.0407086 C176.981302,14.7117976 174.104956,16.4011698 173.257352,19.196534" id="Fill-138" fill="#11163F"></path>
                    <path d="M183.158108,34.0071274 L191.514788,34.9914007 C192.228223,35.0750769 192.877633,34.5385142 192.959121,33.799231 L192.99155,33.4912681 C193.073038,32.7528475 192.555839,32.0782623 191.842403,31.9937235 L183.487386,31.0085875 C182.77395,30.9249113 182.123709,31.4623366 182.042221,32.2016199 L182.008129,32.5095827 C181.928304,33.2480034 182.445503,33.9225886 183.158108,34.0071274" id="Fill-140" fill="#11163F"></path>
                    <path d="M201.15742,36.0064793 L209.513146,36.9914029 C210.226572,37.075061 210.875972,36.538614 210.957459,35.7986276 L210.99155,35.4915936 C211.073037,34.7524697 210.555845,34.0788923 209.841588,33.9943717 L201.486693,33.0085857 C200.772436,32.9249275 200.123036,33.462237 200.041549,34.2013609 L200.008289,34.5092574 C199.927633,35.2483813 200.444825,35.9219587 201.15742,36.0064793" id="Fill-142" fill="#11163F"></path>
                    <path d="M200,55.5533127 C198.609672,57.5321106 196.912388,58.1217671 195.07772,57.9799387 C192.888994,57.8128532 190.545612,56.2634262 190,54 L200,55.5533127 Z" id="Fill-144" fill="#FEFEFE"></path>
                    <path d="M192,48.3406863 L192.145866,48.3537582 C192.044462,49.6315359 192.9883,50.7679739 195.604524,51 L197,41 C193.816693,44.3676471 192.416537,46.2818627 192,48.3406863" id="Fill-146" fill="#F6AB92"></path>
                    <polygon id="Fill-148" fill="#EBECEE" points="188 184.806169 213.337237 187 223 77.1938312 197.661983 75"></polygon>
                    <polygon id="Fill-150" fill="#DE3A36" points="209.25483 88 216 79.8509193 210.761362 76 204 78.7859146"></polygon>
                    <polygon id="Fill-152" fill="#FEFEFE" points="198 81.2309545 209.524211 75.3119542 222.279971 84 223 74.8888136 198.724529 73"></polygon>
                    <polygon id="Fill-154" fill="#9B97AA" points="188 188.660629 213.544981 191 214 186.340042 188.455019 184"></polygon>
                    <polygon id="Fill-156" fill="#16214A" points="193 190.243309 202.498113 191 203 185.757424 193.501887 185"></polygon>
                    <path d="M213,201.909163 C213,201.909163 218.179104,203.683738 226.032044,204.536646 C228.886432,204.853396 232.096683,205.048854 235.53918,204.989367 C235.745954,204.989367 235.943739,204.912111 236.134031,204.853396 L241.695219,129.417379 C243.159872,116.789085 242.729092,110.091747 242.886421,99.6737519 C242.910394,98.2406499 242.944108,96.7387899 242.993554,95.1434499 C243.027267,94.1962893 242.927626,93.3086158 242.720851,92.4642059 C241.645024,88.035882 237.582952,84.9464076 233.139546,82.6434011 C230.46571,81.2612882 227.654026,80.1603877 225.279114,79.2387216 C224.170323,78.8029968 224.840093,79.1707361 223.648892,79 L213,201.909163 Z" id="Fill-158" fill="#515B6B"></path>
                    <path d="M172,196.574944 L176.519335,197.009799 L186.899566,198 C186.899566,198 199.000591,77.5924443 197.933339,78.0010375 C196.121108,78.7015934 194.166477,79.7844813 192.247071,81.2010408 C188.30708,84.0920888 184.507241,88.3834762 182.380231,93.6040463 C181.76716,95.0878035 181.29574,96.6580682 181.006443,98.2870344 C180.989205,98.3465082 180.973466,98.4152508 180.964472,98.4747246 C179.160485,108.762932 172,196.574944 172,196.574944" id="Fill-160" fill="#515B6B"></path>
                    <path d="M209,89 L199,186" id="Stroke-162" stroke="#9B97AA" stroke-width="1.177"></path>
                    <path d="M218.014738,137.980041 C217.499085,138.984768 230.685868,101.722839 230.685868,101.722839 L226.381179,97.5061931 L234,82.5688979 L223.888331,76 C223.888331,76 218.879908,136.293535 218.014738,137.980041" id="Fill-164" fill="#424956"></path>
                    <path d="M228.282633,210.043185 C228.219921,209.90866 221.044352,203.502831 222.107427,202.004256 C223.879219,199.509765 226.286439,196.937886 228.767704,194.90049 L233.516409,191 C233.516409,191 239.532947,196.921251 239.857838,197.220677 C244.386675,201.367072 233.985613,208.007958 233.985613,208.007958 C233.985613,208.007958 229.666066,213.05046 228.282633,210.043185" id="Fill-166" fill="#F6AB92"></path>
                    <path d="M227.379009,201.391809 L215.387156,211.552985 C214.622294,212.200808 213.436882,212.13696 212.753998,211.410495 L212.471172,211.108385 C211.788289,210.381919 211.855511,209.256793 212.622013,208.608191 L224.613045,198.447015 C225.377907,197.799192 226.56332,197.86304 227.245383,198.589505 L227.52903,198.890837 C228.211913,199.618081 228.143871,200.743207 227.379009,201.391809" id="Fill-168" fill="#F6AB92"></path>
                    <path d="M228.410826,208.377034 L219.214739,216.554637 C218.48736,217.200502 217.364008,217.136148 216.71598,216.411973 L216.446811,216.112688 C215.799561,215.388512 215.862574,214.268133 216.589953,213.623043 L225.786039,205.44544 C226.511862,204.799574 227.635992,204.863928 228.28402,205.587329 L228.552411,205.888164 C229.201218,206.611564 229.136648,207.731943 228.410826,208.377034" id="Fill-170" fill="#F6AB92"></path>
                    <path d="M236.354907,207.264311 L224.514653,216.569611 C223.720199,217.193761 222.491092,217.131571 221.782548,216.431744 L221.488243,216.141773 C220.780549,215.442695 220.850298,214.359986 221.644752,213.736586 L233.485857,204.430537 C234.280311,203.806387 235.508567,203.868578 236.217111,204.566906 L236.511416,204.857626 C237.21996,205.557453 237.149361,206.639412 236.354907,207.264311" id="Fill-172" fill="#F6AB92"></path>
                    <path d="M233.962928,193.840396 L220.501694,199.860197 C219.64272,200.243563 218.644433,199.811088 218.283112,198.897821 L218.132624,198.518415 C217.770559,197.60198 218.175089,196.545346 219.038533,196.159604 L232.499767,190.139803 C233.357996,189.756437 234.357028,190.188912 234.718349,191.102179 L234.868092,191.480793 C235.229412,192.394852 234.822647,193.45703 233.962928,193.840396" id="Fill-174" fill="#F6AB92"></path>
                    <polygon id="Fill-176" fill="#FEFEFE" points="230 190.992783 231.466407 189.750736 234.724198 187 244.049327 196.921945 246 199.003418 245.373255 199.532143 244.002902 200.700503 241.283006 203 240.761919 202.443927 234.191906 195.44972 231.530442 192.622258 231.337536 192.420188"></polygon>
                    <path d="M235.037384,100.679362 L239.245544,90.0003802 L240.397076,89 C240.540072,89.1734405 242.500399,91.5512793 245.266497,95.4289141 C247.626305,98.7420929 250.58155,103.156309 253.498965,108.237962 C262.432037,123.797282 266.609934,137.732145 265.928245,149.662376 C264.510393,174.458178 246.239473,199.928385 245.462454,201 L244.383555,200.176932 L242.39599,198.671716 L234.211943,192.461925 L233.059655,191.595497 L231.23854,190.207198 L230,189.271084 C230.146779,189.061252 245.625121,167.393573 246.708559,148.507138 C247.531731,134.114671 240.549151,123.227406 233.412983,113.647913 C232.392341,112.288263 235.807594,101.606185 235.037384,100.679362" id="Fill-178" fill="#515B6B"></path>
                    <path d="M172.88894,205.285055 C172.984007,205.159182 181.621432,200.235278 180.964327,198.397219 C179.868393,195.337175 178.170873,192.037894 176.265726,189.279632 L172.61971,184 C172.61971,184 165.237172,188.706558 164.843974,188.937976 C159.366583,192.154385 167.836689,201.722301 167.836689,201.722301 C167.836689,201.722301 170.773125,208.093353 172.88894,205.285055" id="Fill-180" fill="#F6AB92"></path>
                    <path d="M175.29413,196.924014 L183.566975,209.245878 C184.094615,210.031587 185.161136,210.236951 185.935357,209.702243 L186.256887,209.479385 C187.031857,208.943916 187.233469,207.86233 186.70583,207.075861 L178.432984,194.753236 C177.905345,193.967527 176.839574,193.762923 176.063854,194.299152 L175.743822,194.52049 C174.968103,195.056719 174.76649,196.138305 175.29413,196.924014" id="Fill-182" fill="#F6AB92"></path>
                    <path d="M172.310713,202.002605 L179.373072,212.225627 C179.931252,213.033037 181.057112,213.243869 181.874984,212.692582 L182.214642,212.465351 C183.033306,211.914845 183.247077,210.804462 182.688897,209.997052 L175.626538,199.77403 C175.06915,198.96662 173.94329,198.756569 173.123834,199.307076 L172.78576,199.535868 C171.966304,200.084812 171.753325,201.195976 172.310713,202.002605" id="Fill-184" fill="#F6AB92"></path>
                    <path d="M167.304268,201.037316 L175.448257,213.216395 C175.99486,214.033231 177.097368,214.246525 177.899052,213.689591 L178.231665,213.458918 C179.032573,212.902774 179.241911,211.779426 178.695308,210.9618 L170.55132,198.782721 C170.004717,197.965884 168.902984,197.75417 168.1013,198.310314 L167.769462,198.540987 C166.967003,199.097131 166.758441,200.220479 167.304268,201.037316" id="Fill-186" fill="#F6AB92"></path>
                    <path d="M171.708723,189.509078 L183.926999,198.649252 C184.70626,199.232187 185.821825,199.071861 186.404908,198.29202 L186.647016,197.969032 C187.232434,197.186077 187.073624,196.076244 186.289692,195.491752 L174.071416,186.3508 C173.292156,185.767865 172.177369,185.928191 171.593508,186.707254 L171.3514,187.03102 C170.767538,187.810862 170.927906,188.926143 171.708723,189.509078" id="Fill-188" fill="#F6AB92"></path>
                    <polygon id="Fill-190" fill="#FEFEFE" points="175 184.951395 173.991753 183.412192 171.750718 180 161.2075 187.476023 159 189.046329 159.431585 189.70252 160.372033 191.148415 162.241992 194 162.831048 193.581252 170.259853 188.309726 173.268556 186.179572 173.486536 186.027852"></polygon>
                    <path d="M193,96.608968 L191.423372,85.2501766 L190.533796,84 C190.351907,84.1318817 187.862775,85.9473756 184.227283,89.0130462 C181.123703,91.6337125 177.173343,95.1721518 173.099942,99.3638297 C160.631358,112.200313 153.210583,124.638066 151.030969,136.336973 C146.502079,160.65179 158.330994,189.772189 158.836921,191 L160.090276,190.469388 L162.398282,189.50457 L171.901612,185.520355 L173.238269,184.967377 L175.354451,184.074284 L176.791223,183.475032 C176.697222,183.235948 166.698663,158.479213 170.144624,139.957935 C172.772847,125.844282 182.215802,117.043687 191.496739,109.54417 C192.821168,108.482175 192.024065,97.3161931 193,96.608968" id="Fill-192" fill="#515B6B"></path>
                    <polygon id="Fill-194" fill="#DE3A36" points="211 85 208.93671 152.367986 202.333582 161 198 151.947098 207.698436 85"></polygon>
                    <path d="M208,43 C208,43 206.755722,41.1015194 204.435615,41.0050923 C202.117005,40.9092324 201,42.1985202 201,42.1985202" id="Stroke-196" stroke="#11163F" stroke-width="1.545" stroke-linecap="round"></path>
                    <path d="M191,41 C191,41 190.246175,39.1156908 188.322055,39.0066276 C186.397935,38.8970246 185,40.1831061 185,40.1831061" id="Stroke-198" stroke="#11163F" stroke-width="1.408" stroke-linecap="round"></path>
                    <path d="M193.438498,137.977399 C193.759585,139.080069 188,99.4672304 188,99.4672304 L192.90016,95.9000906 L189.263578,81.7404755 L200,74 C200,74 192.897764,136.129241 193.438498,137.977399" id="Fill-200" fill="#424956"></path>
                </g>
            </g>
        </g>
    </g>
</svg>