<?xml version="1.0" encoding="UTF-8"?>
<svg width="861px" height="862px" viewBox="0 0 861 862" version="1.1" xmlns="http://www.w3.org/2000/svg" xmlns:xlink="http://www.w3.org/1999/xlink">
    <!-- Generator: Sketch 52.1 (67048) - http://www.bohemiancoding.com/sketch -->
    <title>Group 36</title>
    <desc>Created with Sketch.</desc>
    <defs>
        <polygon id="path-1" points="0.668699283 0 235.846292 0 235.846292 235.177469 0.668699283 235.177469"></polygon>
    </defs>
    <g id="Page-1" stroke="none" stroke-width="1" fill="none" fill-rule="evenodd">
        <g id="Innovation-site-updated" transform="translate(-527.000000, -10670.000000)">
            <g id="Group-36" transform="translate(526.500000, 10670.000000)">
                <text id="Incubators" font-family="NeuzeitGro-Lig, Neuzeit Grotesk" font-size="21.9229" font-weight="300" fill="#000000">
                    <tspan x="663.5" y="259">In</tspan>
                    <tspan x="679.591409" y="259" letter-spacing="-0.13372969">c</tspan>
                    <tspan x="689.213369" y="259">ub</tspan>
                    <tspan x="711.728188" y="259" letter-spacing="-0.15126801">a</tspan>
                    <tspan x="723.722206" y="259" letter-spacing="-0.2630748">t</tspan>
                    <tspan x="728.611013" y="259">o</tspan>
                    <tspan x="740.38361" y="259" letter-spacing="-0.0876916">r</tspan>
                    <tspan x="746.982403" y="259">s</tspan>
                </text>
                <text id="People" font-family="NeuzeitGro-Bol, Neuzeit Grotesk" font-size="26" font-weight="bold" fill="#000000">
                    <tspan x="413.791" y="375">People</tspan>
                </text>
                <text id="Global-" font-family="NeuzeitGro-Lig, Neuzeit Grotesk" font-size="21.9229" font-weight="300" fill="#000000">
                    <tspan x="215.5" y="116">Global </tspan>
                </text>
                <text id="Garages" font-family="NeuzeitGro-Lig, Neuzeit Grotesk" font-size="21.9229" font-weight="300" letter-spacing="0.1474603" fill="#000000">
                    <tspan x="215.5" y="148">G</tspan>
                    <tspan x="231.497717" y="148" letter-spacing="0.1255374">a</tspan>
                    <tspan x="243.922001" y="148" letter-spacing="-0.4225351">r</tspan>
                    <tspan x="249.72557" y="148" letter-spacing="-0.006">ag</tspan>
                    <tspan x="274.026066" y="148" letter-spacing="0.0159229">e</tspan>
                    <tspan x="285.573434" y="148" letter-spacing="-0.006">s</tspan>
                </text>
                <text id="Startups" font-family="NeuzeitGro-Lig, Neuzeit Grotesk" font-size="21.9229" font-weight="300" letter-spacing="-0.0876916" fill="#000000">
                    <tspan x="13.5" y="397">S</tspan>
                    <tspan x="23.7160714" y="397" letter-spacing="-0.2630748">t</tspan>
                    <tspan x="28.6048781" y="397">a</tspan>
                    <tspan x="40.903625" y="397" letter-spacing="0.5042267">r</tspan>
                    <tspan x="48.6862545" y="397" letter-spacing="-0.1973061">t</tspan>
                    <tspan x="53.7065986" y="397">ups</tspan>
                </text>
                <text id="Ideas-&amp;-" font-family="NeuzeitGro-Lig, Neuzeit Grotesk" font-size="21.9229" font-weight="300" fill="#000000">
                    <tspan x="229.5" y="817">Id</tspan>
                    <tspan x="246.906783" y="817" letter-spacing="0.0438458">e</tspan>
                    <tspan x="258.635534" y="817" letter-spacing="-0.0657687">a</tspan>
                    <tspan x="270.802744" y="817">s &amp; </tspan>
                </text>
                <text id="Challenges" font-family="NeuzeitGro-Lig, Neuzeit Grotesk" font-size="21.9229" font-weight="300" fill="#000000">
                    <tspan x="230.5" y="850">Challe</tspan>
                    <tspan x="288.617608" y="850" letter-spacing="-0.1315374">ng</tspan>
                    <tspan x="311.263964" y="850" letter-spacing="-0.1096145">e</tspan>
                    <tspan x="322.685795" y="850">s</tspan>
                </text>
                <g id="Group-35" transform="translate(0.500000, 0.000000)">
                    <g id="Group-17" transform="translate(3.981630, 3.710187)" fill="#20242B" opacity="0.200000003">
                        <path d="M173.93713,548.105235 C143.509891,541.012595 124.59536,510.596486 131.686763,480.169247 C138.779403,449.743244 169.195512,430.827476 199.622752,437.918879 C230.048754,445.012756 248.965759,475.427628 241.873119,505.854868 C234.780479,536.280871 204.365607,555.196638 173.93713,548.105235 Z M282.251079,495.452742 C282.577575,483.160894 280.502344,471.162151 276.384037,460.011803 L295.043802,446.130759 L285.872221,431.384004 L276.701876,416.63725 L255.999036,427.237253 C247.819311,418.612306 237.974949,411.444225 226.806051,406.303143 L230.182321,383.308644 L213.271291,379.365953 L196.359024,375.423261 L189.219389,397.542156 C176.928777,397.214423 164.930034,399.289654 153.77845,403.409198 L139.898642,384.749433 L125.151888,393.919778 L110.405133,403.091359 L121.003899,423.791726 C112.380189,431.972687 105.212109,441.817049 100.06979,452.985947 L77.0765277,449.60844 L73.1338362,466.520707 L69.1911446,483.432974 L91.3088032,490.571373 C90.9823067,502.864458 93.0587745,514.861964 97.1770815,526.013548 L78.5173168,539.893356 L87.6876611,554.64011 L96.8592422,569.386865 L117.559609,558.788099 C125.739334,567.411809 135.583696,574.57989 146.75383,579.720971 L143.376324,602.715471 L160.288591,606.659399 L177.202094,610.600854 L184.339257,588.483195 C196.632341,588.809692 208.629848,586.734461 219.780195,582.614917 L233.661239,601.275918 L248.407994,592.104337 L263.154749,582.932756 L252.554746,562.232389 C261.180929,554.052664 268.347773,544.208303 273.488855,533.038168 L296.484591,536.415674 L300.426046,519.503407 L304.368737,502.591141 L282.251079,495.452742 Z" id="Fill-1"></path>
                        <path d="M726.186149,516.936948 C695.757673,509.845545 676.843142,479.429436 683.934545,449.002196 C691.027185,418.576193 721.443294,399.659189 751.870534,406.751829 C782.296537,413.844469 801.213541,444.259341 794.120901,474.68658 C787.028261,505.11382 756.613389,524.029588 726.186149,516.936948 Z M834.498861,464.285691 C834.826594,451.992606 832.750126,439.993863 828.631819,428.844753 L847.291584,414.962471 L838.120003,400.216954 L828.949659,385.470199 L808.248055,396.068965 C800.067093,387.444018 790.222732,380.277174 779.053834,375.134856 L782.43134,352.140357 L765.519073,348.198902 L748.606806,344.25621 L741.467171,366.373869 C729.17656,366.046136 717.177816,368.122603 706.026232,372.24091 L692.146425,353.581146 L677.39967,362.752727 L662.654152,371.923071 L673.251681,392.624675 C664.627971,400.805636 657.461128,410.649998 652.317572,421.818896 L629.32431,418.44139 L625.381618,435.353657 L621.440164,452.265923 L643.556585,459.404322 C643.230089,471.69617 645.306557,483.694913 649.424864,494.846497 L630.765099,508.726305 L639.935443,523.47306 L649.107024,538.218578 L669.807392,527.621048 C677.988353,536.244758 687.831478,543.411602 699.002849,548.553921 L695.624106,571.54842 L712.536373,575.491111 L729.449877,579.432566 L736.587039,557.314908 C748.880123,557.642641 760.878867,555.566173 772.027977,551.447866 L785.910258,570.107631 L800.655776,560.937286 L815.402531,551.765705 L804.803765,531.065338 C813.428712,522.884377 820.595555,513.041252 825.737874,501.86988 L848.732373,505.248624 L852.673828,488.336357 L856.616519,471.42409 L834.498861,464.285691 Z" id="Fill-3"></path>
                        <path d="M116.498125,758.367194 C85.2633016,757.626393 60.5448023,731.705794 61.2843661,700.472207 C62.0251667,669.23862 87.9457664,644.517647 119.179353,645.258448 C150.41294,646.000485 175.132676,671.919848 174.393112,703.153435 C173.652312,734.387022 147.731712,759.107995 116.498125,758.367194 Z M211.802923,684.738543 C209.616386,672.638388 205.138191,661.313662 198.832111,651.238032 L214.271434,633.843441 L202.285058,621.277039 L190.301155,608.710637 L172.195445,623.306511 C162.428997,616.530474 151.329356,611.521722 139.347927,608.763817 L137.965264,585.56402 L120.604065,585.15219 L103.242865,584.740359 L100.763224,607.849874 C88.6630692,610.036411 77.3408166,614.514606 67.2627133,620.818213 L49.869359,605.381363 L37.3029572,617.365266 L24.7365555,629.350405 L39.3324293,647.456115 C32.556392,657.223799 27.5464034,668.320967 24.7909716,680.30487 L1.58993859,681.686296 L1.17810789,699.047495 L0.766277188,716.407458 L23.8745555,718.887099 C26.0610921,730.987254 30.5392872,742.31198 36.8453676,752.388847 L21.4060448,769.780964 L33.3911839,782.348603 L45.3763231,794.916241 L63.4820333,780.319131 C73.2484809,787.095168 84.3468855,792.10392 96.3295512,794.861825 L97.7122141,818.061622 L115.073413,818.473452 L132.433376,818.885283 L134.913018,795.775768 C147.013172,793.590468 158.336662,789.112273 168.414765,782.807429 L185.806883,798.244279 L198.374521,786.260376 L210.940923,774.275237 L196.345049,756.170764 C203.121086,746.403079 208.131075,735.304675 210.886507,723.320772 L234.08754,721.939346 L234.498134,704.579383 L234.909964,687.218184 L211.802923,684.738543 Z" id="Fill-5"></path>
                        <path d="M630.596904,173.489929 C600.169664,166.398526 581.253897,135.982417 588.346537,105.555177 C595.43794,75.1279377 625.854049,56.2121702 656.281288,63.3035733 C686.708528,70.3974499 705.624296,100.812322 698.532892,131.239562 C691.439016,161.665565 661.024143,180.582569 630.596904,173.489929 Z M738.909615,120.837436 C739.237349,108.545588 737.160881,96.5468445 733.042574,85.3964973 L751.702339,71.5154528 L742.531994,56.7686981 L733.360413,42.0231802 L712.658809,52.6219463 C704.479085,43.9969994 694.634723,36.8289191 683.465825,31.6878373 L686.842095,8.69333802 L669.931065,4.75188321 L653.017561,0.809191679 L645.879162,22.9268502 C633.587314,22.5991171 621.589808,24.6755848 610.438224,28.7938918 L596.558416,10.1341271 L581.811661,19.3044714 L567.064907,28.4760525 L577.663673,49.1764198 C569.038726,57.3573811 561.871882,67.2017426 556.729564,78.3706407 L533.735065,74.9931343 L529.792373,91.9054011 L525.850918,108.818905 L547.96734,115.956067 C547.640844,128.249152 549.717311,140.246658 553.835618,151.398242 L535.175854,165.27805 L544.347435,180.024804 L553.517779,194.771559 L574.218146,184.172793 C582.399108,192.79774 592.243469,199.964583 603.413604,205.105665 L600.036098,228.101401 L616.948364,232.044093 L633.860631,235.985547 L640.99903,213.867889 C653.290878,214.195622 665.289621,212.119154 676.439968,208.000847 L690.321013,226.660612 L705.067768,217.489031 L719.814522,208.318687 L709.214519,187.618319 C717.839466,179.437358 725.00631,169.592997 730.148628,158.422862 L753.143128,161.800368 L757.084582,144.888101 L761.027274,127.975834 L738.909615,120.837436 Z" id="Fill-7"></path>
                        <path d="M144.666232,302.264319 C114.238993,295.171679 95.3244617,264.75557 102.415865,234.328331 C109.508505,203.902328 139.924614,184.985324 170.351853,192.077964 C200.777856,199.170603 219.693624,229.585476 212.602221,260.013952 C205.508344,290.439955 175.093472,309.355723 144.666232,302.264319 Z M252.98018,249.611826 C253.306677,237.318741 251.231446,225.321235 247.111902,214.170888 L265.772904,200.289843 L256.601323,185.543088 L247.429741,170.796334 L226.728137,181.396337 C218.548413,172.770153 208.704051,165.603309 197.535153,160.462228 L200.911423,137.466492 L184.000393,133.525037 L167.088126,129.582345 L159.94849,151.700004 C147.656642,151.373507 135.659136,153.448738 124.507552,157.567045 L110.627744,138.907281 L95.8809897,148.078862 L81.134235,157.249206 L91.7330011,177.95081 C83.109291,186.131771 75.9412106,195.976133 70.7988921,207.145031 L47.8056296,203.767525 L43.8617013,220.679791 L39.9202465,237.592058 L62.037905,244.730457 C61.7114086,257.022305 63.7866396,269.021048 67.9061834,280.172632 L49.2451819,294.05244 L58.416763,308.799195 L67.588344,323.545949 L88.2887113,312.947183 C96.4684359,321.570893 106.312797,328.738974 117.482932,333.880055 L114.105426,356.874555 L131.017693,360.817246 L147.92996,364.759938 L155.068358,342.641042 C167.360206,342.968776 179.358949,340.892308 190.509297,336.774001 L204.390341,355.433766 L219.137096,346.263421 L233.883851,337.09184 L223.283848,316.391473 C231.908795,308.211748 239.076875,298.367387 244.217957,287.197252 L267.212456,290.574758 L271.155147,273.662492 L275.097839,256.750225 L252.98018,249.611826 Z" id="Fill-9"></path>
                        <path d="M451.516342,461.844512 C397.897963,461.844512 354.431892,418.37844 354.431892,364.760061 C354.431892,311.141683 397.897963,267.674374 451.516342,267.674374 C505.134721,267.674374 548.602029,311.141683 548.602029,364.760061 C548.602029,418.37844 505.134721,461.844512 451.516342,461.844512 Z M612.036325,331.642937 C607.794345,310.971014 599.650486,291.723803 588.420988,274.691574 L614.201837,244.222285 L593.127978,223.148426 L572.054118,202.074566 L541.583593,227.854179 C524.551364,216.625918 505.305389,208.482059 484.633467,204.238842 L481.32027,164.490377 L451.516342,164.490377 L421.713651,164.490377 L418.400454,204.238842 C397.727295,208.482059 378.481321,216.625918 361.449091,227.854179 L330.978566,202.074566 L309.904706,223.148426 L288.830847,244.222285 L314.61046,274.691574 C303.382199,291.723803 295.239576,310.971014 290.996359,331.642937 L251.246658,334.956133 L251.246658,364.760061 L251.246658,394.562753 L290.996359,397.875949 C295.239576,418.547872 303.382199,437.795083 314.61046,454.827312 L288.830847,485.297838 L309.904706,506.371697 L330.978566,527.44432 L361.449091,501.664707 C378.481321,512.892968 397.727295,521.036828 418.400454,525.280044 L421.713651,565.029746 L451.516342,565.029746 L481.32027,565.029746 L484.633467,525.280044 C505.305389,521.036828 524.551364,512.892968 541.583593,501.664707 L572.054118,527.44432 L593.127978,506.371697 L614.201837,485.297838 L588.420988,454.827312 C599.650486,437.795083 607.794345,418.547872 612.036325,397.875949 L651.786026,394.562753 L651.786026,364.760061 L651.786026,334.956133 L612.036325,331.642937 Z" id="Fill-11"></path>
                        <path d="M348.445135,719.015348 C315.856093,715.432545 292.342168,686.109704 295.923734,653.520662 C299.507774,620.930384 328.830615,597.416459 361.41842,600.998025 C394.008698,604.582065 417.522624,633.904906 413.941057,666.493948 C410.358254,699.082989 381.035413,722.596915 348.445135,719.015348 Z M454.709823,650.604456 C453.511433,637.75608 449.847005,625.513701 444.161763,614.411586 L461.865536,597.614335 L450.46537,583.398137 L439.063967,569.181939 L418.822426,582.813164 C409.220463,574.851104 398.066406,568.615517 385.785688,564.655512 L386.427551,540.275876 L368.313183,538.283506 L350.198816,536.292372 L345.530165,560.229259 C332.681789,561.427649 320.43941,565.09084 309.337295,570.778556 L292.540044,553.072309 L278.323846,564.473712 L264.106411,575.875116 L277.74011,596.116657 C269.77805,605.718619 263.541226,616.87144 259.581221,629.153394 L235.201585,628.511532 L233.209215,646.625899 L231.218081,664.73903 L255.154968,669.410154 C256.353358,682.257294 260.016549,694.499672 265.704265,705.601787 L247.998018,722.399038 L259.399422,736.615236 L270.799588,750.832671 L291.042366,737.198972 C300.644328,745.162269 311.797149,751.397856 324.079103,755.357862 L323.437241,779.738734 L341.551608,781.729867 L359.664739,783.721001 L364.335863,759.782877 C377.183003,758.585724 389.425381,754.921296 400.527496,749.236054 L417.324747,766.939827 L431.540945,755.539661 L445.75838,744.138258 L432.124681,723.896717 C440.087978,714.294754 446.323565,703.141933 450.283571,690.859979 L474.664443,691.501842 L476.655576,673.387474 L478.64671,655.274344 L454.709823,650.604456 Z" id="Fill-13"></path>
                        <path d="M568.743519,793.32284 C536.154477,789.741273 512.640552,760.418432 516.222119,727.828154 C519.806159,695.237876 549.128999,671.72395 581.716804,675.306754 C614.307083,678.889557 637.821008,708.213635 634.239441,740.80144 C630.656638,773.391718 601.333797,796.905643 568.743519,793.32284 Z M675.006971,724.911947 C673.809817,712.064808 670.14539,699.82243 664.460147,688.719078 L682.163921,671.923064 L670.763754,657.705629 L659.362351,643.489431 L639.12081,657.121893 C629.518847,649.159833 618.36479,642.924246 606.084073,638.963003 L606.725935,614.583368 L588.611568,612.592234 L570.4972,610.601101 L565.828549,634.537988 C552.980173,635.736378 540.737794,639.399569 529.635679,645.086048 L512.838428,627.381038 L498.62223,638.782441 L484.404796,650.182607 L498.037258,670.424148 C490.075197,680.027348 483.839611,691.180168 479.879605,703.460886 L455.499969,702.819024 L453.507599,720.934628 L451.516466,739.047758 L475.453352,743.718883 C476.651743,756.566022 480.314933,768.808401 486.002649,779.910516 L468.296403,796.707767 L479.697806,810.923965 L491.097972,825.141399 L511.34075,811.507701 C520.942712,819.470998 532.095533,825.706585 544.377487,829.66659 L543.735625,854.047463 L561.849992,856.038596 L579.963123,858.028493 L584.634248,834.091606 C597.481387,832.894453 609.723766,829.230025 620.82588,823.544782 L637.623131,841.248556 L651.839329,829.847153 L666.056764,818.446986 L652.423065,798.205445 C660.386362,788.603483 666.621949,777.449425 670.581955,765.168708 L694.962827,765.81057 L696.953961,747.694966 L698.945094,729.581836 L675.006971,724.911947 Z" id="Fill-15"></path>
                    </g>
                    <path d="M173.400619,547.296044 C142.973379,540.20464 124.057611,509.788531 131.150251,479.361292 C138.241654,448.935289 168.657764,430.018285 199.085003,437.110925 C229.512243,444.203564 248.42801,474.618437 241.336607,505.045676 C234.242731,535.471679 203.827858,554.388684 173.400619,547.296044 Z M281.71333,494.644787 C282.041063,482.351702 279.964596,470.352959 275.846289,459.203848 L294.506053,445.321567 L285.335709,430.576049 L276.164128,415.829295 L255.462524,426.428061 C247.282799,417.803114 237.438438,410.63627 226.26954,405.493952 L229.645809,382.499453 L212.734779,378.557998 L195.821276,374.615306 L188.682877,396.732965 C176.391029,396.405232 164.393522,398.481699 153.241939,402.600006 L139.360894,383.940242 L124.615376,393.111823 L109.868621,402.282167 L120.467388,422.982534 C111.842441,431.164732 104.675597,441.009094 99.5332786,452.177992 L76.5387793,448.800486 L72.5960878,465.712752 L68.654633,482.625019 L90.7722915,489.762181 C90.4445583,502.055266 92.5210261,514.054009 96.6393331,525.205593 L77.9795684,539.085401 L87.1511495,553.832156 L96.3214938,568.577673 L117.021861,557.980144 C125.202822,566.603854 135.047184,573.770698 146.217319,578.913016 L142.839812,601.907516 L159.752079,605.850207 L176.664346,609.791662 L183.802745,587.674003 C196.094593,588.001737 208.093336,585.925269 219.243683,581.806962 L233.124728,600.466727 L247.871482,591.296382 L262.617,582.124801 L252.018234,561.424434 C260.643181,553.243473 267.810025,543.400348 272.952343,532.228976 L295.946842,535.607719 L299.888297,518.695453 L303.830989,501.781949 L281.71333,494.644787 Z" id="Fill-18" fill="#747C89"></path>
                    <path d="M725.648401,516.128993 C695.221161,509.036353 676.305394,478.621481 683.398034,448.193004 C690.490673,417.767001 720.905546,398.851234 751.334022,405.942637 C781.760025,413.036514 800.675792,443.451386 793.584389,473.878626 C786.490513,504.304628 756.07564,523.221633 725.648401,516.128993 Z M833.961112,463.476499 C834.288846,451.184651 832.212378,439.185908 828.094071,428.035561 L846.753836,414.154516 L837.583491,399.407762 L828.41191,384.662244 L807.710306,395.26101 C799.530582,386.636063 789.68622,379.467983 778.517322,374.326901 L781.893592,351.332402 L764.982562,347.38971 L748.070295,343.447019 L740.930659,365.565914 C728.638811,365.238181 716.641305,367.314648 705.489721,371.432956 L691.609913,352.773191 L676.863158,361.943535 L662.116404,371.115116 L672.71517,391.815484 C664.09146,399.996445 656.923379,409.840806 651.781061,421.009704 L628.786562,417.632198 L624.84387,434.544465 L620.902415,451.456732 L643.018837,458.595131 C642.693577,470.888215 644.768808,482.885722 648.887115,494.037306 L630.227351,507.917113 L639.398932,522.663868 L648.570513,537.410623 L669.27088,526.811857 C677.450605,535.435567 687.294966,542.603647 698.465101,547.744729 L695.087595,570.740465 L711.999861,574.683156 L728.912128,578.624611 L736.050527,556.506953 C748.342375,556.833449 760.341118,554.758218 771.491465,550.639911 L785.37251,569.299676 L800.119265,560.128095 L814.866019,550.956514 L804.266016,530.256146 C812.890963,522.076422 820.059044,512.23206 825.200125,501.061925 L848.194625,504.439432 L852.136079,487.527165 L856.080008,470.614898 L833.961112,463.476499 Z" id="Fill-20" fill="#979DA6"></path>
                    <path d="M115.960377,757.558002 C84.7267899,756.817202 60.0070539,730.896602 60.7466177,699.663015 C61.4874183,668.430665 87.408018,643.709692 118.641605,644.450493 C149.876428,645.191294 174.596164,671.111893 173.855364,702.344243 C173.114563,733.579067 147.1952,758.298803 115.960377,757.558002 Z M211.265174,683.930588 C209.078638,671.830433 204.600443,660.505707 198.295599,650.42884 L213.733685,633.035486 L201.748546,620.467847 L189.763407,607.901446 L171.657697,622.498556 C161.891249,615.721282 150.792844,610.71253 138.810179,607.955862 L137.427516,584.754829 L120.066316,584.342998 L102.706354,583.932404 L100.226712,607.040682 C88.1265575,609.227219 76.8030682,613.705414 66.7249649,620.010258 L49.3328473,604.573408 L36.7664456,616.557311 L24.1988071,628.54245 L38.7946809,646.646923 C32.0198803,656.414608 27.0098918,667.513012 24.2532232,679.495678 L1.05342693,680.878341 L0.641596225,698.238304 L0.229765522,715.599503 L23.3380439,718.079144 C25.5233437,730.179299 30.0015388,741.502789 36.3076192,751.579655 L20.8695331,768.973009 L32.8546723,781.540648 L44.8385747,794.10705 L62.9442849,779.509939 C72.7107325,786.285976 83.8103738,791.295965 95.7930396,794.052634 L97.1757024,817.253667 L114.535665,817.665497 L131.896865,818.076091 L134.376506,794.967813 C146.476661,792.781276 157.80015,788.303081 167.877017,781.998238 L185.270371,797.436324 L197.836773,785.451185 L210.403174,773.466045 L195.807301,755.361572 C202.583338,745.593888 207.593326,734.49672 210.349995,722.512817 L233.549791,721.131391 L233.961622,703.770192 L234.373453,686.410229 L211.265174,683.930588 Z" id="Fill-22" fill="#20242B"></path>
                    <g id="Group-26" transform="translate(524.644471, 0.000000)">
                        <mask id="mask-2" fill="white">
                            <use xlink:href="#path-1"></use>
                        </mask>
                        <g id="Clip-25"></g>
                        <path d="M105.414685,172.681851 C74.9874453,165.589211 56.0729145,135.173102 63.1643176,104.745862 C70.2569575,74.3198591 100.673067,55.4028548 131.100306,62.4954947 C161.526309,69.5881346 180.443313,100.003007 173.350673,130.431483 C166.258034,160.857486 135.843161,179.773254 105.414685,172.681851 Z M213.728633,120.029357 C214.05513,107.736272 211.979899,95.7387659 207.861592,84.5884187 L226.521356,70.7073742 L217.349775,55.9606195 L208.179431,41.2138648 L187.47659,51.8138677 C179.296866,43.1876841 169.452504,36.0208405 158.283606,30.8797587 L161.659876,7.88402267 L144.748846,3.94256786 L127.836579,-0.000123672884 L120.696943,22.1175349 C108.406332,21.7898017 96.4075888,23.8662694 85.2560049,27.9845765 L71.3761971,9.32481176 L56.6294425,18.4963928 L41.8826878,27.6667372 L52.4814539,48.3683412 C43.8577438,56.5493024 36.6896634,66.393664 31.5473449,77.5625621 L8.55408235,74.1850557 L4.61139082,91.0973225 L0.668699283,108.009589 L22.7863578,115.147988 C22.4598614,127.439836 24.5363291,139.438579 28.6546362,150.590163 L9.99487145,164.469971 L19.1652158,179.216726 L28.3367968,193.96348 L49.0371641,183.364714 C57.2168887,191.988424 67.0612502,199.156505 78.2313851,204.297587 L74.8538786,227.292086 L91.7661455,231.234777 L108.679649,235.177469 L115.816811,213.058574 C128.109896,213.386307 140.107402,211.309839 151.257749,207.191532 L165.138794,225.851297 L179.885549,216.680952 L194.632303,207.509371 L184.0323,186.809004 C192.658484,178.629279 199.825328,168.784918 204.966409,157.614783 L227.962145,160.99229 L231.9036,144.080023 L235.846292,127.167756 L213.728633,120.029357 Z" id="Fill-24" fill="#747C89" mask="url(#mask-2)"></path>
                    </g>
                    <path d="M144.12972,301.455128 C113.702481,294.363725 94.7867133,263.947615 101.879353,233.520376 C108.970756,203.093136 139.386865,184.177369 169.814105,191.268772 C200.240108,198.362648 219.157112,228.777521 212.064472,259.20476 C204.971832,289.630763 174.55696,308.547768 144.12972,301.455128 Z M252.442432,248.802634 C252.770165,236.510786 250.693698,224.512043 246.57539,213.361696 L265.235155,199.480651 L256.063574,184.733897 L246.89323,169.988379 L226.191626,180.587145 C218.010665,171.962198 208.166303,164.794118 196.997405,159.653036 L200.374911,136.658537 L183.462644,132.717082 L166.550378,128.77439 L159.411979,150.892049 C147.120131,150.564316 135.121388,152.640783 123.969804,156.75909 L110.089996,138.099326 L95.344478,147.26967 L80.5977233,156.441251 L91.1952528,177.141618 C82.5715426,185.32258 75.404699,195.166941 70.2611437,206.335839 L47.2678812,202.958333 L43.3251896,219.8706 L39.3837348,236.784103 L61.5013934,243.921265 C61.1736602,256.21435 63.2501279,268.211857 67.368435,279.36344 L48.7086703,293.243248 L57.8802513,307.990003 L67.0505957,322.736758 L87.7509629,312.137991 C95.9319242,320.762938 105.775049,327.929782 116.946421,333.070864 L113.567677,356.0666 L130.479944,360.009291 L147.393448,363.950746 L154.53061,341.833088 C166.823695,342.160821 178.822438,340.084353 189.971548,335.966046 L203.85383,354.625811 L218.599347,345.45423 L233.346102,336.283885 L222.747336,315.583518 C231.372283,307.402557 238.539126,297.558195 243.681445,286.38806 L266.675944,289.765567 L270.617399,272.8533 L274.560091,255.941033 L252.442432,248.802634 Z" id="Fill-27" fill="#414956"></path>
                    <path d="M450.97983,461.036557 C397.361452,461.036557 353.894143,417.570485 353.894143,363.95087 C353.894143,310.332491 397.361452,266.865182 450.97983,266.865182 C504.596972,266.865182 548.064281,310.332491 548.064281,363.95087 C548.064281,417.570485 504.596972,461.036557 450.97983,461.036557 Z M611.499813,330.833745 C607.256597,310.161822 599.112737,290.915848 587.884476,273.883619 L613.664089,243.413094 L592.591466,222.339234 L571.517607,201.265375 L541.047081,227.046224 C524.013615,215.816726 504.767641,207.674104 484.095718,203.430887 L480.782522,163.681185 L450.97983,163.681185 L421.175902,163.681185 L417.862706,203.430887 C397.190783,207.674104 377.943572,215.816726 360.911343,227.046224 L330.442054,201.265375 L309.368195,222.339234 L288.294335,243.413094 L314.073948,273.883619 C302.845687,290.915848 294.701828,310.161822 290.458611,330.833745 L250.710146,334.148178 L250.710146,363.95087 L250.710146,393.754798 L290.458611,397.067995 C294.701828,417.739917 302.845687,436.985891 314.073948,454.018121 L288.294335,484.488646 L309.368195,505.562505 L330.442054,526.636365 L360.911343,500.855515 C377.943572,512.085013 397.190783,520.227636 417.862706,524.470853 L421.175902,564.220554 L450.97983,564.220554 L480.782522,564.220554 L484.095718,524.470853 C504.767641,520.227636 524.013615,512.085013 541.047081,500.855515 L571.517607,526.636365 L592.591466,505.562505 L613.664089,484.488646 L587.884476,454.018121 C599.112737,436.985891 607.256597,417.739917 611.499813,397.067995 L651.249515,393.754798 L651.249515,363.95087 L651.249515,334.148178 L611.499813,330.833745 Z" id="Fill-29" fill="#006193"></path>
                    <path d="M347.908623,718.206156 C315.318345,714.62459 291.804419,685.301749 295.387223,652.711471 C298.970026,620.121192 328.292867,596.607267 360.881908,600.19007 C393.47095,603.772874 416.986112,633.095714 413.403309,665.684756 C409.821742,698.275034 380.497665,721.787723 347.908623,718.206156 Z M454.172075,649.795264 C452.974921,636.946888 449.310494,624.704509 443.624015,613.602395 L461.329025,596.80638 L449.927621,582.588945 L438.527455,568.372747 L418.284677,582.005209 C408.683951,574.043149 397.529894,567.807562 385.249177,563.84632 L385.891039,539.466684 L367.775435,537.475551 L349.662304,535.484418 L344.992416,559.421304 C332.14404,560.618458 319.901662,564.282885 308.799547,569.969364 L292.002296,552.264354 L277.786098,563.664521 L263.5699,575.065924 L277.202362,595.307465 C269.240302,604.910664 263.004715,616.063485 259.044709,628.344202 L234.663837,627.70234 L232.671467,645.816707 L230.68157,663.931075 L254.618456,668.602199 C255.81561,681.449339 259.480038,693.691717 265.166517,704.792595 L247.461507,721.589846 L258.861673,735.807281 L270.263076,750.024716 L290.504617,736.391017 C300.107817,744.354314 311.260637,750.589901 323.541355,754.549907 L322.899492,778.930779 L341.01386,780.920676 L359.128227,782.911809 L363.799352,758.974923 C376.645254,757.777769 388.887633,754.113341 399.989748,748.428099 L416.786999,766.131872 L431.004434,754.730469 L445.221868,743.330303 L431.58817,723.088762 C439.551467,713.486799 445.787053,702.332742 449.747059,690.052024 L474.127931,690.693887 L476.117828,672.578283 L478.108962,654.465152 L454.172075,649.795264 Z" id="Fill-31" fill="#B9BDC4"></path>
                    <path d="M568.207007,792.514885 C535.616729,788.932081 512.102803,759.609241 515.685607,727.020199 C519.26841,694.429921 548.591251,670.915995 581.180293,674.497562 C613.769334,678.081602 637.28326,707.404443 633.701693,739.993485 C630.120126,772.582526 600.796049,796.096452 568.207007,792.514885 Z M674.470459,724.103993 C673.272069,711.255617 669.608878,699.013238 663.922399,687.911123 L681.627409,671.113872 L670.226006,656.897674 L658.825839,642.681476 L638.583062,656.313938 C628.982336,648.351878 617.828278,642.115054 605.546324,638.155048 L606.189423,613.775413 L588.073819,611.783043 L569.960689,609.791909 L565.290801,633.728796 C552.442425,634.927186 540.200046,638.591614 529.097931,644.278093 L512.30068,626.571846 L498.084482,637.973249 L483.868284,649.374653 L497.500746,669.616193 C489.538686,679.218156 483.303099,690.372213 479.341856,702.652931 L454.962221,702.011069 L452.969851,720.125436 L450.979954,738.238566 L474.916841,742.909691 C476.113994,755.75683 479.778422,767.999209 485.464901,779.101324 L467.759891,795.898575 L479.160057,810.114773 L490.561461,824.333444 L510.803001,810.698509 C520.406201,818.661806 531.559021,824.89863 543.839739,828.857399 L543.197877,853.238271 L561.312244,855.229404 L579.426611,857.220538 L584.097736,833.283651 C596.943638,832.085261 609.186017,828.420833 620.288132,822.735591 L637.085383,840.440601 L651.302818,829.039198 L665.520252,817.639031 L651.886554,797.396254 C659.849851,787.795528 666.085438,776.64147 670.045443,764.359516 L694.426316,765.001378 L696.416212,746.887011 L698.407346,728.773881 L674.470459,724.103993 Z" id="Fill-33" fill="#515B6B"></path>
                </g>
                <text id="Business" font-family="NeuzeitGro-Lig, Neuzeit Grotesk" font-size="21.9229" font-weight="300" fill="#000000">
                    <tspan x="691.5" y="803">Busin</tspan>
                    <tspan x="738.2177" y="803" letter-spacing="-0.1096145">e</tspan>
                    <tspan x="749.639531" y="803" letter-spacing="-0.0219229">s</tspan>
                    <tspan x="758.518305" y="803">s</tspan>
                </text>
                <text id="Collaboration" font-family="NeuzeitGro-Lig, Neuzeit Grotesk" font-size="21.9229" font-weight="300" letter-spacing="-0.1096145" fill="#000000">
                    <tspan x="691.5" y="835">C</tspan>
                    <tspan x="705.048352" y="835">ollabo</tspan>
                    <tspan x="762.617888" y="835" letter-spacing="-0.5480725">r</tspan>
                    <tspan x="768.295919" y="835" letter-spacing="-0.1534603">a</tspan>
                    <tspan x="780.287745" y="835" letter-spacing="-0.2849977">t</tspan>
                    <tspan x="785.132706" y="835">ion</tspan>
                </text>
                <text id="Emerging" font-family="NeuzeitGro-Lig, Neuzeit Grotesk" font-size="21.9229" font-weight="300" fill="#000000">
                    <tspan x="744.5" y="604">Eme</tspan>
                    <tspan x="783.303533" y="604" letter-spacing="-0.438458">r</tspan>
                    <tspan x="789.200793" y="604">gi</tspan>
                    <tspan x="806.234886" y="604" letter-spacing="-0.12934511">n</tspan>
                    <tspan x="816.869685" y="604">g</tspan>
                </text>
                <text id="Technology" font-family="NeuzeitGro-Lig, Neuzeit Grotesk" font-size="21.9229" font-weight="300" letter-spacing="-1.2276824" fill="#000000">
                    <tspan x="744.5" y="637">T</tspan>
                    <tspan x="751.559174" y="637">e</tspan>
                    <tspan x="763.200234" y="637" letter-spacing="-0.2849977">c</tspan>
                    <tspan x="772.517466" y="637">hnolo</tspan>
                    <tspan x="822.611293" y="637" letter-spacing="-0.1096145">g</tspan>
                    <tspan x="834.668888" y="637">y</tspan>
                </text>
            </g>
        </g>
    </g>
</svg>