<?xml version="1.0" encoding="UTF-8"?>
<svg width="1920px" height="1080px" viewBox="0 0 1920 1080" version="1.1" xmlns="http://www.w3.org/2000/svg" xmlns:xlink="http://www.w3.org/1999/xlink">
    <!-- Generator: Sketch 52.1 (67048) - http://www.bohemiancoding.com/sketch -->
    <title>second-type-bkg</title>
    <desc>Created with Sketch.</desc>
    <g id="second-type-bkg" stroke="none" stroke-width="1" fill="none" fill-rule="evenodd">
        <g id="Group" transform="translate(2.000000, 170.000000)" fill-rule="nonzero">
            <g id="Group-18" transform="translate(134.500000, 229.500000) rotate(-360.000000) translate(-134.500000, -229.500000) translate(0.000000, 2.000000)" stroke="#E2E2E2" stroke-linecap="square">
                <path d="M18.5,113.5 L194.5,223" id="Line-2"></path>
                <path d="M10.5,213.5 L194.5,223" id="Line-3"></path>
                <path d="M67.5,201 L194.5,223" id="Line-5"></path>
                <path d="M10.5,213.5 L112.5,331.5" id="Line-7"></path>
                <path d="M0.5,454.5 L112.5,331.5" id="Line-8"></path>
                <path d="M18.5,113.5 L168.5,0.5" id="Line-9"></path>
                <path d="M168.5,0.5 L194.5,223" id="Line-10"></path>
                <path d="M0.5,57 L168.5,0.5" id="Line-11"></path>
                <path d="M18.5,113.5 L255.5,186.5" id="Line-12"></path>
                <path d="M0.5,287.5 L168.5,354.5" id="Line-13"></path>
                <path d="M168.5,354.5 L268.5,354.5" id="Line-14"></path>
                <path d="M214.5,308.5 L67.5,201" id="Line-4"></path>
                <path d="M67.5,201 L10.5,213.5" id="Line-6"></path>
            </g>
            <g id="Group-19" transform="translate(140.000000, 179.500000) rotate(-360.000000) translate(-140.000000, -179.500000) translate(9.000000, 0.000000)" fill="#D8D8D8">
                <circle id="Oval" cx="246" cy="189" r="3"></circle>
                <circle id="Oval-Copy-7" cx="60" cy="203" r="3"></circle>
                <circle id="Oval-Copy-8" cx="206" cy="310" r="3"></circle>
                <circle id="Oval-Copy" cx="158" cy="3" r="3"></circle>
                <circle id="Oval-Copy-2" cx="186" cy="225" r="3"></circle>
                <circle id="Oval-Copy-3" cx="259" cy="356" r="3"></circle>
                <circle id="Oval-Copy-4" cx="103" cy="334" r="3"></circle>
                <circle id="Oval-Copy-5" cx="3" cy="216" r="3"></circle>
                <circle id="Oval-Copy-6" cx="10" cy="115" r="3"></circle>
            </g>
        </g>
        <g id="Group-Copy" transform="translate(1782.500000, 563.500000) rotate(-180.000000) translate(-1782.500000, -563.500000) translate(1647.000000, 335.000000)" fill-rule="nonzero">
            <g id="Group-18" transform="translate(134.500000, 229.500000) rotate(-360.000000) translate(-134.500000, -229.500000) translate(0.000000, 2.000000)" stroke="#E2E2E2" stroke-linecap="square">
                <path d="M18.5,113.5 L194.5,223" id="Line-2"></path>
                <path d="M10.5,213.5 L194.5,223" id="Line-3"></path>
                <path d="M67.5,201 L194.5,223" id="Line-5"></path>
                <path d="M10.5,213.5 L112.5,331.5" id="Line-7"></path>
                <path d="M0.5,454.5 L112.5,331.5" id="Line-8"></path>
                <path d="M18.5,113.5 L168.5,0.5" id="Line-9"></path>
                <path d="M168.5,0.5 L194.5,223" id="Line-10"></path>
                <path d="M0.5,57 L168.5,0.5" id="Line-11"></path>
                <path d="M18.5,113.5 L255.5,186.5" id="Line-12"></path>
                <path d="M0.5,287.5 L168.5,354.5" id="Line-13"></path>
                <path d="M168.5,354.5 L268.5,354.5" id="Line-14"></path>
                <path d="M214.5,308.5 L67.5,201" id="Line-4"></path>
                <path d="M67.5,201 L10.5,213.5" id="Line-6"></path>
            </g>
            <g id="Group-19" transform="translate(140.000000, 179.500000) rotate(-360.000000) translate(-140.000000, -179.500000) translate(9.000000, 0.000000)" fill="#D8D8D8">
                <circle id="Oval" cx="246" cy="189" r="3"></circle>
                <circle id="Oval-Copy-7" cx="60" cy="203" r="3"></circle>
                <circle id="Oval-Copy-8" cx="206" cy="310" r="3"></circle>
                <circle id="Oval-Copy" cx="158" cy="3" r="3"></circle>
                <circle id="Oval-Copy-2" cx="186" cy="225" r="3"></circle>
                <circle id="Oval-Copy-3" cx="259" cy="356" r="3"></circle>
                <circle id="Oval-Copy-4" cx="103" cy="334" r="3"></circle>
                <circle id="Oval-Copy-5" cx="3" cy="216" r="3"></circle>
                <circle id="Oval-Copy-6" cx="10" cy="115" r="3"></circle>
            </g>
        </g>
        <g id="Group-20-Copy-6" transform="translate(143.500000, 852.500000) rotate(-360.000000) translate(-143.500000, -852.500000) translate(2.000000, 624.000000)" fill-rule="nonzero">
            <g id="Group-18" transform="translate(0.000000, 2.000000)" stroke="#E2E2E2" stroke-linecap="square">
                <path d="M18.5,113.5 L194.5,223" id="Line-2"></path>
                <path d="M10.5,213.5 L194.5,223" id="Line-3"></path>
                <path d="M67.5,201 L194.5,223" id="Line-5"></path>
                <path d="M10.5,213.5 L112.5,331.5" id="Line-7"></path>
                <path d="M0.5,454.5 L112.5,331.5" id="Line-8"></path>
                <path d="M18.5,113.5 L168.5,0.5" id="Line-9"></path>
                <path d="M168.5,0.5 L194.5,223" id="Line-10"></path>
                <path d="M0.5,57 L168.5,0.5" id="Line-11"></path>
                <path d="M18.5,113.5 L280.5,45.986" id="Line-12"></path>
                <path d="M0.5,287.5 L168.5,354.5" id="Line-13"></path>
                <path d="M168.5,354.5 L234.5,296.5" id="Line-14"></path>
                <path d="M18.5,161.5 L67.5,201" id="Line-4"></path>
                <path d="M67.5,201 L10.5,213.5" id="Line-6"></path>
            </g>
            <g id="Group-19" transform="translate(9.000000, 0.000000)" fill="#D8D8D8">
                <circle id="Oval" cx="271" cy="48" r="3"></circle>
                <circle id="Oval-Copy" cx="158" cy="3" r="3"></circle>
                <circle id="Oval-Copy-2" cx="186" cy="225" r="3"></circle>
                <circle id="Oval-Copy-3" cx="225" cy="299" r="3"></circle>
                <circle id="Oval-Copy-4" cx="103" cy="334" r="3"></circle>
                <circle id="Oval-Copy-5" cx="3" cy="216" r="3"></circle>
                <circle id="Oval-Copy-6" cx="10" cy="115" r="3"></circle>
            </g>
        </g>
    </g>
</svg>