<?xml version="1.0" encoding="UTF-8"?>
<svg width="1920px" height="1080px" viewBox="0 0 1920 1080" version="1.1" xmlns="http://www.w3.org/2000/svg" xmlns:xlink="http://www.w3.org/1999/xlink">
    <!-- Generator: Sketch 52.1 (67048) - http://www.bohemiancoding.com/sketch -->
    <title>third-type-bkg</title>
    <desc>Created with Sketch.</desc>
    <defs>
        <polygon id="path-1" points="0.7236 0.9494 242.9816 0.9494 242.9816 136.427 0.7236 136.427"></polygon>
        <polygon id="path-3" points="0.7466 0.83 60.6016 0.83 60.6016 12.427 0.7466 12.427"></polygon>
        <polygon id="path-5" points="0.1072 0.8261 59.9592 0.8261 59.9592 12.427 0.1072 12.427"></polygon>
        <polygon id="path-7" points="0.7925 0.017 112.9175 0.017 112.9175 70.427 0.7925 70.427"></polygon>
        <polygon id="path-9" points="0.2134 0.437 81.4974 0.437 81.4974 55.427 0.2134 55.427"></polygon>
        <polygon id="path-11" points="0.0626 0.6771 322.893 0.6771 322.893 138.427 0.0626 138.427"></polygon>
        <polygon id="path-13" points="0.3769 0.2086 432.2199 0.2086 432.2199 302.427 0.3769 302.427"></polygon>
        <polygon id="path-15" points="0.7236 0.9494 242.9816 0.9494 242.9816 136.427 0.7236 136.427"></polygon>
        <polygon id="path-17" points="0.7466 0.83 60.6016 0.83 60.6016 12.427 0.7466 12.427"></polygon>
        <polygon id="path-19" points="0.1072 0.8261 59.9592 0.8261 59.9592 12.427 0.1072 12.427"></polygon>
        <polygon id="path-21" points="0.7925 0.017 112.9175 0.017 112.9175 70.427 0.7925 70.427"></polygon>
        <polygon id="path-23" points="0.2134 0.437 81.4974 0.437 81.4974 55.427 0.2134 55.427"></polygon>
        <polygon id="path-25" points="0.0626 0.6771 322.893 0.6771 322.893 138.427 0.0626 138.427"></polygon>
        <polygon id="path-27" points="0.3769 0.2086 432.2199 0.2086 432.2199 302.427 0.3769 302.427"></polygon>
    </defs>
    <g id="third-type-bkg" stroke="none" stroke-width="1" fill="none" fill-rule="evenodd" opacity="0.100000001">
        <g id="Group-51-Copy" transform="translate(1772.000000, 559.500000) rotate(-90.000000) translate(-1772.000000, -559.500000) translate(1256.500000, 407.500000)">
            <g id="Group-13" transform="translate(0.000000, 166.960000)">
                <mask id="mask-2" fill="white">
                    <use xlink:href="#path-1"></use>
                </mask>
                <g id="Clip-12"></g>
                <path d="M121.8506,219.4374 C68.1716,219.4374 24.5006,175.7624 24.5006,122.0804 C24.5006,96.0744 34.6276,71.6304 53.0126,53.2394 C71.4016,34.8524 95.8486,24.7264 121.8506,24.7264 C147.8606,24.7264 172.3076,34.8524 190.6956,53.2404 C209.0816,71.6304 219.2116,96.0744 219.2116,122.0804 C219.2116,175.7624 175.5376,219.4294 121.8506,219.4374 Z M115.0186,243.2084 L128.6806,243.2084 L129.6786,228.4144 C130.6576,228.3404 131.6396,228.2884 132.6126,228.1874 L136.1606,242.5534 L149.6066,240.1804 L148.0306,225.4744 C148.9816,225.2294 149.9216,224.9544 150.8656,224.6894 L156.8626,238.2374 L169.6946,233.5674 L165.5716,219.3194 C166.4646,218.9134 167.3646,218.5224 168.2426,218.0964 L176.4976,230.3954 L188.3346,223.5634 L181.7956,210.2424 C182.6026,209.6904 183.3876,209.1124 184.1786,208.5434 L194.4786,219.2614 L204.9426,210.4714 L196.1736,198.4664 C196.8716,197.7904 197.5606,197.0974 198.2416,196.4014 L210.2536,205.1734 L219.0296,194.7044 L208.3146,184.4124 C208.8886,183.6154 209.4606,182.8284 210.0146,182.0224 L223.3376,188.5624 L230.1666,176.7274 L217.8676,168.4774 C218.2966,167.5954 218.6896,166.6964 219.0896,165.8054 L233.3416,169.9254 L238.0136,157.0914 L224.4596,151.0924 C224.7286,150.1514 225.0006,149.2104 225.2456,148.2614 L239.9546,149.8414 L242.3286,136.3864 L227.9616,132.8434 C228.0586,131.8694 228.1166,130.8864 228.1886,129.9084 L242.9816,128.9124 L242.9816,115.2484 L228.1926,114.2494 C228.1216,113.2714 228.0666,112.2914 227.9696,111.3144 L242.3286,107.7734 L239.9546,94.3204 L225.2836,95.8984 C225.0436,94.9414 224.7636,93.9974 224.4956,93.0474 L238.0136,87.0724 L233.3456,74.2324 L219.1556,78.3414 C218.7486,77.4404 218.3416,76.5444 217.9106,75.6554 L230.1696,67.4284 L223.3416,55.5954 L210.0646,62.1174 C209.5116,61.3064 208.9416,60.5034 208.3656,59.7074 L219.0356,49.4484 L210.2536,38.9864 L198.2826,47.7314 C197.9376,47.3764 197.6156,47.0154 197.2666,46.6674 C196.9186,46.3194 196.5566,45.9974 196.2036,45.6524 L204.9506,33.6804 L194.4826,24.8984 L184.2276,35.5694 C183.4266,34.9914 182.6316,34.4264 181.8176,33.8704 L188.3346,20.5904 L176.5016,13.7634 L168.2796,26.0244 C167.3936,25.5924 166.4946,25.1884 165.5926,24.7834 L169.7026,10.5884 L156.8676,5.9184 L150.8886,19.4414 C149.9366,19.1724 148.9936,18.8944 148.0346,18.6504 L149.6146,3.9714 L136.1646,1.6024 L132.6216,15.9644 C131.6516,15.8684 130.6616,15.8154 129.6826,15.7424 L128.6866,0.9494 L115.0266,0.9494 L114.0266,15.7424 C113.0476,15.8154 112.0656,15.8684 111.0906,15.9644 L107.5476,1.6024 L94.1006,3.9754 L95.6726,18.6504 C94.7156,18.8904 93.7716,19.1684 92.8246,19.4394 L86.8486,5.9184 L74.0116,10.5884 L78.1206,24.7774 C77.2186,25.1854 76.3196,25.5884 75.4356,26.0244 L67.2066,13.7584 L55.3736,20.5904 L61.8916,33.8704 C61.0826,34.4264 60.2786,34.9914 59.4816,35.5654 L49.2276,24.8954 L38.7636,33.6764 L47.5066,45.6484 C47.1556,45.9914 46.7896,46.3194 46.4386,46.6674 C46.0946,47.0114 45.7756,47.3764 45.4316,47.7254 L33.4586,38.9824 L24.6726,49.4444 L35.3476,59.7014 C34.7706,60.5004 34.2016,61.2984 33.6456,62.1094 L20.3676,55.5914 L13.5386,67.4204 L25.7986,75.6494 C25.3686,76.5374 24.9596,77.4344 24.5626,78.3374 L10.3716,74.2304 L5.6956,87.0644 L19.2166,93.0404 C18.9486,93.9924 18.6646,94.9374 18.4316,95.8944 L3.7526,94.3144 L1.3766,107.7654 L15.7406,111.3124 C15.6436,112.2834 15.5856,113.2694 15.5146,114.2484 L0.7236,115.2404 L0.7236,128.9044 L15.5216,129.9024 C15.5926,130.8804 15.6476,131.8654 15.7446,132.8374 L1.3766,136.3824 L3.7526,149.8354 L18.4606,148.2494 C18.7076,149.2074 18.9776,150.1474 19.2426,151.0884 L5.6896,157.0834 L10.3636,169.9194 L24.6126,165.7974 C25.0176,166.6924 25.4046,167.5894 25.8376,168.4714 L13.5386,176.7194 L20.3616,188.5564 L33.6886,182.0184 C34.2396,182.8244 34.8176,183.6134 35.3876,184.4044 L24.6686,194.7004 L33.4516,205.1674 L45.4636,196.4004 C46.1416,197.0934 46.8326,197.7864 47.5316,198.4624 L38.7566,210.4714 L49.2236,219.2564 L59.5226,208.5364 C60.3136,209.1104 61.0986,209.6864 61.9066,210.2364 L55.3666,223.5634 L67.2016,230.3924 L75.4516,218.0964 C76.3326,218.5184 77.2336,218.9134 78.1266,219.3154 L73.9966,233.5634 L86.8406,238.2334 L92.8376,224.6854 C93.7796,224.9544 94.7156,225.2294 95.6726,225.4704 L94.0886,240.1764 L107.5476,242.5534 L111.0906,228.1874 C112.0616,228.2884 113.0396,228.3404 114.0226,228.4144 L115.0186,243.2084 Z" id="Fill-11" fill="#000000" mask="url(#mask-2)"></path>
            </g>
            <g id="Group-16" transform="translate(154.000000, 290.960000)">
                <mask id="mask-4" fill="white">
                    <use xlink:href="#path-3"></use>
                </mask>
                <g id="Clip-15"></g>
                <path d="M60.6016,0.83 L28.8886,0.83 C27.9856,21.314 16.9846,39.169 0.7466,49.565 L16.6226,77.053 C42.3216,61.147 59.6596,33.051 60.6016,0.83" id="Fill-14" fill="#000000" mask="url(#mask-4)"></path>
            </g>
            <path d="M182.8887,286.2939 L214.6017,286.2939 C213.6597,254.0749 196.3217,225.9769 170.6227,210.0709 L154.7497,237.5589 C170.9847,247.9569 181.9857,265.8079 182.8887,286.2939" id="Fill-17" fill="#000000"></path>
            <g id="Group-21" transform="translate(29.000000, 290.960000)">
                <mask id="mask-6" fill="white">
                    <use xlink:href="#path-5"></use>
                </mask>
                <g id="Clip-20"></g>
                <path d="M31.8232,0.8261 L0.1072,0.8301 C1.0462,33.0471 18.3882,61.1471 44.0902,77.0531 L59.9592,49.5651 C43.7242,39.1661 32.7262,21.3101 31.8232,0.8261" id="Fill-19" fill="#000000" mask="url(#mask-6)"></path>
            </g>
            <path d="M121.8506,227.9375 C132.0066,227.9375 141.5696,230.4285 149.9966,234.8125 L165.8696,207.3155 C152.7726,200.2465 137.7816,196.2275 121.8506,196.2275 C105.9236,196.2275 90.9366,200.2465 77.8386,207.3115 L93.7156,234.8045 C102.1356,230.4285 111.7026,227.9375 121.8506,227.9375" id="Fill-22" fill="#000000"></path>
            <path d="M88.9658,237.5586 L73.0898,210.0716 C47.3888,225.9766 30.0458,254.0756 29.1078,286.2936 L60.8228,286.2936 C61.7268,265.8056 72.7248,247.9526 88.9658,237.5586" id="Fill-24" fill="#000000"></path>
            <g id="Group-28" transform="translate(65.000000, 232.960000)">
                <mask id="mask-8" fill="white">
                    <use xlink:href="#path-7"></use>
                </mask>
                <g id="Clip-27"></g>
                <path d="M5.4385,56.08 C5.4385,27.726 28.5045,4.662 56.8545,4.662 C85.2085,4.662 108.2685,27.726 108.2685,56.08 C108.2685,84.434 85.2085,107.498 56.8545,107.498 C28.5045,107.498 5.4385,84.434 5.4385,56.08 M56.8545,112.143 C87.7725,112.143 112.9175,86.998 112.9175,56.08 C112.9175,25.166 87.7725,0.017 56.8545,0.017 C25.9405,0.017 0.7925,25.166 0.7925,56.08 C0.7925,86.998 25.9405,112.143 56.8545,112.143" id="Fill-26" fill="#000000" mask="url(#mask-8)"></path>
            </g>
            <g id="Group-31" transform="translate(81.000000, 247.960000)">
                <mask id="mask-10" fill="white">
                    <use xlink:href="#path-9"></use>
                </mask>
                <g id="Clip-30"></g>
                <path d="M24.3594,41.08 C24.3594,31.968 31.7424,24.581 40.8544,24.581 C49.9664,24.581 57.3494,31.968 57.3494,41.08 C57.3494,50.192 49.9664,57.579 40.8544,57.579 C31.7424,57.579 24.3594,50.192 24.3594,41.08 M81.4974,41.08 C81.4974,18.637 63.3014,0.437 40.8544,0.437 C18.4114,0.437 0.2134,18.637 0.2134,41.08 C0.2134,63.523 18.4114,81.723 40.8544,81.723 C63.3014,81.723 81.4974,63.523 81.4974,41.08" id="Fill-29" fill="#000000" mask="url(#mask-10)"></path>
            </g>
            <path d="M761.3018,159.4287 C724.3718,159.4287 694.3268,129.3817 694.3268,92.4537 C694.3268,74.5637 701.2938,57.7437 713.9458,45.0947 C726.5958,32.4447 743.4138,25.4797 761.3018,25.4797 C798.2378,25.4797 828.2798,55.5227 828.2798,92.4537 C828.2798,129.3817 798.2378,159.4287 761.3018,159.4287 Z M737.5688,175.4237 L755.2398,178.5407 L757.8848,169.9497 C759.0228,169.9947 760.1558,170.0357 761.3018,170.0357 C762.4518,170.0357 763.5918,169.9947 764.7308,169.9497 L767.3738,178.5367 L785.0448,175.4237 L784.5948,166.4577 C786.7868,165.7667 788.9298,164.9777 791.0288,164.1027 L796.4518,171.2717 L811.9938,162.3007 L808.4808,153.9797 C810.2868,152.5927 812.0368,151.1327 813.7158,149.5957 L821.2858,154.4957 L832.8268,140.7527 L826.6838,134.1387 C827.9098,132.2247 829.0488,130.2537 830.1108,128.2297 L838.8938,130.2387 L845.0298,113.3777 L837.0258,109.2807 C837.5168,107.0687 837.9108,104.8207 838.2088,102.5377 L847.1338,101.4227 L847.1298,83.4827 L838.2088,82.3667 C837.9108,80.0867 837.5168,77.8397 837.0258,75.6277 L845.0218,71.5317 L838.8898,54.6687 L830.1108,56.6767 C829.0488,54.6517 827.9098,52.6797 826.6838,50.7647 L832.8218,44.1587 L821.2858,30.4117 L813.7118,35.3087 C812.0368,33.7707 810.2868,32.3117 808.4768,30.9247 L811.9868,22.6117 L796.4488,13.6397 L791.0248,20.8017 C788.9248,19.9277 786.7808,19.1387 784.5948,18.4497 L785.0448,9.4897 L767.3738,6.3737 L764.7288,14.9587 C763.5918,14.9077 762.4518,14.8727 761.3018,14.8727 C760.1558,14.8727 759.0148,14.9057 757.8768,14.9557 L755.2358,6.3737 L737.5648,9.4897 L738.0158,18.4247 C735.8258,19.1097 733.6638,19.8797 731.5488,20.7587 L726.1588,13.6437 L710.6188,22.6157 L714.1098,30.8857 C712.3078,32.2727 710.5528,33.7357 708.8638,35.2907 L701.3228,30.4197 L689.7878,44.1627 L695.8888,50.7297 C694.6498,52.6617 693.4948,54.6407 692.4418,56.6657 L683.7238,54.6717 L677.5838,71.5337 L685.5628,75.6207 C685.0718,77.8467 684.6768,80.0977 684.3828,82.3737 L675.4798,83.4857 L675.4798,101.4337 L684.3968,102.5437 C684.6978,104.8247 685.0888,107.0747 685.5798,109.2867 L677.5858,113.3817 L683.7238,130.2457 L692.4988,128.2357 C693.5548,130.2617 694.7038,132.2327 695.9258,134.1467 L689.7918,140.7527 L701.3228,154.4997 L708.9018,149.6077 C710.5798,151.1407 712.3238,152.6007 714.1308,153.9877 L710.6228,162.3007 L726.1648,171.2717 L731.5888,164.1117 C733.6858,164.9817 735.8298,165.7697 738.0228,166.4617 L737.5688,175.4237 Z" id="Fill-32" fill="#000000"></path>
            <path d="M729.5625,124.1914 C721.0885,115.7154 716.4215,104.4414 716.4215,92.4514 C716.4215,80.4564 721.0885,69.1824 729.5625,60.7064 C738.0365,52.2314 749.3065,47.5644 761.3015,47.5714 C786.0525,47.5714 806.1915,67.7024 806.1915,92.4514 C806.1795,117.1984 786.0415,137.3334 761.3015,137.3334 C749.3105,137.3374 738.0405,132.6694 729.5625,124.1914 M818.5675,92.4514 C818.5675,60.8804 792.8765,35.1984 761.3015,35.1984 C746.0095,35.1904 731.6275,41.1444 720.8105,51.9594 C710.0015,62.7704 704.0475,77.1514 704.0475,92.4514 C704.0475,107.7464 710.0015,122.1284 720.8175,132.9414 C731.6275,143.7574 746.0095,149.7104 761.3015,149.7084 C792.8675,149.7084 818.5535,124.0234 818.5675,92.4514" id="Fill-34" fill="#000000"></path>
            <path d="M187.083,150.249 C151.112,150.249 121.843,120.985 121.843,85.013 C121.843,67.584 128.634,51.203 140.952,38.883 C153.276,26.562 169.658,19.777 187.083,19.777 C223.054,19.777 252.318,49.041 252.318,85.013 C252.318,120.985 223.054,150.249 187.083,150.249 Z M163.967,165.83 L181.176,168.866 L183.753,160.497 C184.857,160.543 185.966,160.58 187.083,160.58 C188.201,160.58 189.313,160.543 190.421,160.497 L192.997,168.864 L210.212,165.83 L209.77,157.099 C211.903,156.424 213.992,155.654 216.036,154.806 L221.315,161.784 L236.457,153.044 L233.038,144.943 C234.794,143.591 236.5,142.172 238.132,140.673 L245.509,145.446 L256.746,132.06 L250.764,125.614 C251.957,123.75 253.072,121.834 254.104,119.861 L262.654,121.818 L268.636,105.395 L260.841,101.404 C261.32,99.247 261.699,97.061 261.991,94.838 L270.684,93.751 L270.684,76.273 L261.991,75.186 C261.699,72.969 261.32,70.777 260.841,68.624 L268.63,64.634 L262.654,48.21 L254.102,50.166 C253.072,48.192 251.957,46.273 250.764,44.409 L256.743,37.972 L245.509,24.583 L238.132,29.351 C236.496,27.853 234.794,26.433 233.034,25.082 L236.449,16.984 L221.312,8.248 L216.032,15.225 C213.988,14.371 211.899,13.604 209.767,12.931 L210.208,4.205 L192.995,1.169 L190.421,9.528 C189.31,9.485 188.201,9.445 187.083,9.445 C185.966,9.445 184.854,9.478 183.746,9.528 L181.172,1.169 L163.963,4.202 L164.4,12.905 C162.267,13.572 160.163,14.324 158.098,15.182 L152.854,8.248 L137.716,16.988 L141.115,25.042 C139.363,26.397 137.651,27.82 136.002,29.337 L128.657,24.587 L117.428,37.976 L123.366,44.371 C122.164,46.256 121.038,48.185 120.01,50.156 L111.517,48.213 L105.537,64.638 L113.309,68.617 C112.831,70.785 112.448,72.976 112.162,75.194 L103.487,76.28 L103.487,93.759 L112.178,94.845 C112.468,97.064 112.851,99.254 113.326,101.412 L105.541,105.397 L111.517,121.826 L120.065,119.865 C121.095,121.84 122.214,123.758 123.405,125.626 L117.43,132.06 L128.661,145.449 L136.043,140.681 C137.677,142.18 139.375,143.599 141.137,144.951 L137.719,153.044 L152.857,161.786 L158.141,154.808 C160.185,155.658 162.274,156.428 164.407,157.099 L163.967,165.83 Z" id="Fill-36" fill="#000000"></path>
            <path d="M164.7441,85.0127 C164.7441,72.6667 174.7461,62.6657 187.0831,62.6737 C199.4251,62.6737 209.4271,72.6747 209.4271,85.0127 C209.4231,97.3507 199.4251,107.3517 187.0831,107.3517 C174.7501,107.3557 164.7441,97.3507 164.7441,85.0127 M236.8301,85.0127 C236.8301,57.5397 214.5581,35.2697 187.0791,35.2697 C159.6041,35.2587 137.3401,57.5257 137.3401,85.0127 C137.3401,112.4867 159.6091,134.7637 187.0791,134.7517 C214.5581,134.7517 236.8221,112.4867 236.8301,85.0127" id="Fill-38" fill="#000000"></path>
            <g id="Group-42" transform="translate(708.000000, 164.960000)">
                <mask id="mask-12" fill="white">
                    <use xlink:href="#path-11"></use>
                </mask>
                <g id="Clip-41"></g>
                <path d="M156.6846,210.9951 L187.7506,279.8121 C177.8156,282.3421 167.4166,283.6941 156.7096,283.6941 C145.9986,283.6941 135.5986,282.3421 125.6666,279.8121 L156.6846,210.9951 Z M110.6166,184.3681 L66.6066,245.6071 C52.1436,230.7711 41.3146,212.3921 35.5396,191.9141 L110.6166,184.3681 Z M110.7126,131.1641 L35.4966,123.6481 C41.1096,103.6011 51.6696,85.1911 66.5776,69.9061 L110.7126,131.1641 Z M202.6996,131.2691 L246.8116,69.9671 C261.2786,84.8031 272.1036,103.1821 277.8816,123.6681 L202.6996,131.2691 Z M277.8816,191.9121 C272.0996,212.3921 261.2746,230.7711 246.8076,245.6071 L202.7426,184.3581 L277.8816,191.9121 Z M156.7096,194.7311 C136.3066,194.7391 119.7666,178.1931 119.7666,157.7861 C119.7666,137.3711 136.2986,120.8331 156.7096,120.8391 C177.1196,120.8391 193.6666,137.3791 193.6666,157.7861 C193.6596,178.1931 177.1196,194.7311 156.7096,194.7311 Z M156.7096,31.8771 C167.4266,31.8771 177.8296,33.2321 187.7666,35.7641 L156.7456,104.7011 L125.6496,35.7231 C135.6816,33.1891 146.0916,31.8771 156.7096,31.8771 Z M113.3866,309.2161 L145.6426,314.9091 L151.5946,295.5871 C153.2926,295.6481 154.9936,295.7171 156.7096,295.7171 C158.4286,295.7171 160.1366,295.6481 161.8456,295.5871 L167.7916,314.9051 L200.0456,309.2161 L199.0336,289.0471 C202.2966,287.9891 205.5096,286.8091 208.6666,285.5231 L220.8606,301.6411 L249.2266,285.2651 L241.3406,266.5821 C244.0306,264.4831 246.6616,262.3151 249.1886,260.0281 L266.1906,271.0231 L287.2456,245.9381 L273.4586,231.0951 C275.2816,228.2111 276.9996,225.2631 278.6036,222.2391 L298.3146,226.7531 L309.5206,195.9761 L291.5496,186.7731 C292.2636,183.4481 292.8436,180.0751 293.3136,176.6661 L313.3636,174.1601 L313.3636,141.4111 L293.3136,138.9061 C292.8436,135.4971 292.2636,132.1231 291.5456,128.7971 L309.5126,119.5961 L298.3146,88.8251 L278.6036,93.3311 C276.9976,90.3101 275.2816,87.3591 273.4586,84.4741 L287.2376,69.6411 L266.1866,44.5531 L249.1846,55.5381 C246.6526,53.2531 244.0266,51.0831 241.3346,48.9861 L249.2126,30.3141 L220.8526,13.9401 L208.6636,30.0451 C205.5016,28.7551 202.2906,27.5751 199.0216,26.5211 L200.0406,6.3621 L167.7856,0.6771 L161.8376,19.9871 C160.1326,19.9221 158.4286,19.8541 156.7096,19.8541 C154.9966,19.8541 153.2816,19.9201 151.5766,19.9791 L145.6326,0.6811 L113.3786,6.3661 L114.3926,26.4721 C111.1166,27.5251 107.8796,28.6801 104.6966,29.9771 L92.5676,13.9441 L64.2056,30.3171 L72.0516,48.9151 C69.3606,51.0161 66.7146,53.1861 64.1626,55.5041 L47.2356,44.5601 L26.1886,69.6431 L39.9026,84.4161 C38.0676,87.3241 36.3176,90.2851 34.7116,93.3131 L15.1116,88.8331 L3.9056,119.6031 L21.8466,128.7931 C21.1326,132.1351 20.5456,135.5111 20.0796,138.9201 L0.0626,141.4191 L0.0626,174.1711 L20.1046,176.6741 C20.5746,180.0851 21.1546,183.4591 21.8726,186.7851 L3.9126,195.9821 L15.1116,226.7611 L34.8226,222.2511 C36.4256,225.2751 38.1446,228.2231 39.9666,231.1081 L26.1886,245.9421 L47.2396,271.0291 L64.2416,260.0401 C66.7726,262.3291 69.3996,264.4991 72.0906,266.5961 L64.2116,285.2651 L92.5736,301.6451 L104.7636,285.5331 C107.9216,286.8191 111.1376,287.9951 114.4046,289.0531 L113.3866,309.2161 Z" id="Fill-40" fill="#000000" mask="url(#mask-12)"></path>
            </g>
            <g id="Group-47" transform="translate(258.000000, 0.960000)">
                <mask id="mask-14" fill="white">
                    <use xlink:href="#path-13"></use>
                </mask>
                <g id="Clip-46"></g>
                <path d="M91.8379,344.4326 L95.8139,340.4546 C126.4099,370.1176 167.8629,388.6026 213.5779,389.3126 L213.5779,394.9356 C166.3149,394.2226 123.4569,375.1106 91.8379,344.4326 Z M213.5779,37.3166 L213.5779,42.9376 C169.2289,43.6196 127.5979,60.8606 95.7559,91.7416 L91.8379,87.8196 C123.4529,57.1426 166.3149,38.0266 213.5779,37.3166 Z M340.7549,87.8236 L336.8329,91.7416 C304.9939,60.8646 263.3669,43.6216 219.0159,42.9376 L219.0159,37.3166 C266.2779,38.0306 309.1389,57.1466 340.7549,87.8236 Z M219.0159,373.5716 C259.1659,372.8946 296.8399,357.2866 325.7079,329.3816 L329.7729,333.4496 C299.8179,362.4466 260.7009,378.6476 219.0159,379.3316 L219.0159,373.5716 Z M106.9369,329.3336 C134.6849,356.1446 172.2039,372.8656 213.5779,373.5716 L213.5779,379.3286 C170.6169,378.6186 131.6579,361.2506 102.8699,333.3966 L106.9369,329.3336 Z M37.4839,218.8476 L43.1089,218.8476 C43.8169,264.5576 62.3089,306.0106 91.9679,336.6086 L87.9909,340.5826 C57.3139,308.9666 38.1939,266.1106 37.4839,218.8476 Z M91.9089,95.5876 C61.0319,127.4296 43.7909,169.0526 43.1069,213.4026 L37.4839,213.4026 C38.1939,166.1406 57.3139,123.2856 87.9909,91.6656 L91.9089,95.5876 Z M213.5779,58.6776 C173.4309,59.3556 135.7519,74.9576 106.8869,102.8686 L102.8179,98.7996 C132.7749,69.8076 171.8959,53.6016 213.5779,52.9236 L213.5779,58.6776 Z M325.7079,102.8706 C296.8399,74.9616 259.1579,59.3586 219.0159,58.6776 L219.0159,52.9236 C260.6969,53.6046 299.8179,69.8076 329.7729,98.8036 L325.7079,102.8706 Z M389.4769,213.4026 C388.8019,169.0566 371.5579,127.4336 340.6789,95.5876 L344.6009,91.6696 C375.2779,123.2856 394.3949,166.1466 395.1039,213.4026 L389.4769,213.4026 Z M329.5519,325.5366 C357.4589,296.6716 373.0669,258.9926 373.7389,218.8476 L379.4959,218.8476 C378.8159,260.5296 362.6159,299.6506 333.6209,329.6046 L329.5519,325.5366 Z M219.0159,361.1996 C257.0359,360.4946 291.4679,345.1896 316.9609,320.6316 L322.1809,325.8506 C294.2559,352.8186 257.8289,367.9096 219.0159,368.5816 L219.0159,361.1996 Z M115.6349,320.6316 C141.1259,345.1936 175.5559,360.4946 213.5779,361.1996 L213.5779,368.5816 C173.5789,367.8716 137.3099,351.7096 110.4639,325.8086 L115.6349,320.6316 Z M58.8449,218.8476 C59.5549,260.2156 76.2759,297.7396 103.0909,325.4856 L99.0249,329.5506 C71.1689,300.7656 53.8019,261.8056 53.0959,218.8476 L58.8449,218.8476 Z M103.0399,106.7146 C75.1259,135.5776 59.5219,173.2546 58.8449,213.4026 L53.0919,213.4026 C53.7729,171.7256 69.9769,132.5986 98.9679,102.6466 L103.0399,106.7146 Z M213.5779,71.0546 C175.5559,71.7576 141.1259,87.0636 115.6349,111.6196 L110.4139,106.3986 C138.3379,79.4316 174.7669,64.3446 213.5779,63.6696 L213.5779,71.0546 Z M316.9569,111.6226 C291.4679,87.0636 257.0359,71.7576 219.0159,71.0546 L219.0159,63.6696 C257.8289,64.3446 294.2519,79.4356 322.1729,106.4026 L316.9569,111.6226 Z M373.7389,213.4026 C373.0669,173.2586 357.4589,135.5846 329.5519,106.7186 L333.6209,102.6536 C362.6139,132.6026 378.8159,171.7256 379.4959,213.4026 L373.7389,213.4026 Z M320.8039,316.7856 C345.3569,291.2956 360.6629,256.8686 361.3669,218.8476 L368.7499,218.8476 C368.0769,257.6576 352.9889,294.0806 326.0229,322.0046 L320.8039,316.7856 Z M298.9589,302.9876 C293.0149,298.0056 292.2339,289.1376 297.2189,283.1936 C302.2059,277.2466 311.0819,276.4776 317.0279,281.4546 C322.9679,286.4426 323.7489,295.3146 318.7559,301.2606 C313.7629,307.2036 304.9009,307.9766 298.9589,302.9876 Z M264.5939,325.8356 C260.7149,319.1196 263.0119,310.5196 269.7339,306.6406 C276.4499,302.7596 285.0579,305.0706 288.9369,311.7816 C292.8169,318.4986 290.5129,327.0986 283.7929,330.9836 C277.0669,334.8586 268.4709,332.5576 264.5939,325.8356 Z M224.4919,335.5506 C223.1449,327.9116 228.2419,320.6206 235.8809,319.2726 C243.5269,317.9206 250.8209,323.0366 252.1769,330.6716 C253.5209,338.3106 248.4149,345.6046 240.7699,346.9536 C233.1249,348.2966 225.8369,343.1976 224.4919,335.5506 Z M219.0159,285.8216 C236.1999,285.1546 251.8079,278.2506 263.6329,267.3076 L275.4789,279.1536 C260.6259,293.1116 240.8449,301.8626 219.0159,302.5426 L219.0159,285.8216 Z M157.1169,279.1536 L168.9639,267.3076 C180.7889,278.2506 196.3929,285.1546 213.5779,285.8216 L213.5779,302.5426 C191.7509,301.8666 171.9709,293.1116 157.1169,279.1536 Z M183.4839,330.9616 C184.8279,323.3276 192.1129,318.2146 199.7519,319.5606 C207.3979,320.9106 212.5029,328.2076 211.1649,335.8446 C209.8169,343.4876 202.5259,348.5986 194.8759,347.2456 C187.2379,345.8946 182.1329,338.6086 183.4839,330.9616 Z M146.5179,312.6296 C150.3919,305.9066 158.9869,303.6006 165.7049,307.4836 C172.4269,311.3616 174.7329,319.9646 170.8569,326.6826 C166.9779,333.4026 158.3779,335.7116 151.6579,331.8266 C144.9359,327.9396 142.6309,319.3516 146.5179,312.6296 Z M116.3139,302.5546 C111.3259,296.6046 112.1029,287.7436 118.0489,282.7556 C123.9909,277.7716 132.8589,278.5366 137.8429,284.4816 C142.8319,290.4276 142.0549,299.3036 136.1139,304.2886 C130.1719,309.2766 121.2989,308.5006 116.3139,302.5546 Z M71.2239,218.8476 C71.9259,256.8686 87.2319,291.2996 111.7869,316.7886 L106.6179,321.9576 C80.7109,295.1176 64.5439,258.8446 63.8379,218.8476 L71.2239,218.8476 Z M111.7889,115.4626 C87.2319,140.9546 71.9259,175.3836 71.2239,213.4026 L63.8379,213.4026 C64.5129,174.5946 79.6009,138.1696 106.5669,110.2456 L111.7889,115.4626 Z M135.0269,130.9536 C140.9719,135.9386 141.7489,144.8066 136.7599,150.7506 C131.7749,156.6906 122.9019,157.4716 116.9619,152.4866 C111.0199,147.5006 110.2379,138.6316 115.2229,132.6836 C120.2199,126.7416 129.0809,125.9676 135.0269,130.9536 Z M169.3909,108.1096 C173.2679,114.8256 170.9669,123.4246 164.2469,127.2996 C157.5259,131.1796 148.9259,128.8816 145.0499,122.1606 C141.1689,115.4406 143.4699,106.8386 150.1919,102.9606 C156.9159,99.0856 165.5119,101.3866 169.3909,108.1096 Z M209.4939,98.3946 C210.8379,106.0336 205.7379,113.3246 198.1009,114.6686 C190.4579,116.0126 183.1589,110.9186 181.8139,103.2726 C180.4659,95.6296 185.5709,88.3396 193.2129,86.9926 C200.8589,85.6446 208.1469,90.7476 209.4939,98.3946 Z M213.5779,146.4346 C196.3929,147.0986 180.7889,154.0016 168.9639,164.9456 L157.1169,153.0986 C171.9709,139.1446 191.7509,130.3906 213.5779,129.7136 L213.5779,146.4346 Z M275.4789,153.0946 L263.6289,164.9456 C251.8079,153.9976 236.1999,147.0946 219.0159,146.4346 L219.0159,129.7136 C240.8449,130.3946 260.6259,139.1446 275.4789,153.0946 Z M250.5019,102.9786 C249.1539,110.6176 241.8649,115.7306 234.2239,114.3746 C226.5849,113.0266 221.4739,105.7396 222.8209,98.1006 C224.1699,90.4576 231.4599,85.3536 239.1029,86.6986 C246.7489,88.0496 251.8499,95.3366 250.5019,102.9786 Z M287.4709,121.3156 C283.5879,128.0316 274.9909,130.3356 268.2739,126.4586 C261.5539,122.5766 259.2489,113.9846 263.1259,107.2636 C267.0089,100.5416 275.6049,98.2376 282.3229,102.1156 C289.0469,105.9966 291.3519,114.5926 287.4709,121.3156 Z M317.6709,131.3896 C322.6559,137.3346 321.8829,146.2036 315.9349,151.1886 C309.9909,156.1736 301.1229,155.4006 296.1379,149.4576 C291.1499,143.5086 291.9259,134.6486 297.8679,129.6596 C303.8119,124.6656 312.6799,125.4436 317.6709,131.3896 Z M361.3669,213.4026 C360.6629,175.3836 345.3569,140.9586 320.8039,115.4666 L326.0229,110.2496 C352.9849,138.1696 368.0729,174.5886 368.7499,213.4026 L361.3669,213.4026 Z M321.0189,216.1266 C321.0189,208.3676 327.3129,202.0746 335.0689,202.0746 C342.8329,202.0746 349.1239,208.3676 349.1239,216.1266 C349.1239,223.8916 342.8329,230.1786 335.0689,230.1786 C327.3129,230.1786 321.0189,223.8916 321.0189,216.1266 Z M219.0159,262.1596 C229.7119,261.5336 239.4079,257.2876 246.9289,250.6026 L260.1019,263.7806 C249.1879,273.8246 234.8259,280.1726 219.0159,280.8286 L219.0159,262.1596 Z M185.6679,250.6026 C193.1849,257.2876 202.8849,261.5336 213.5779,262.1596 L213.5779,280.8286 C197.7699,280.1726 183.4089,273.8246 172.4909,263.7806 L185.6679,250.6026 Z M213.5779,170.0926 C202.8799,170.7196 193.1809,174.9646 185.6679,181.6496 L172.4909,168.4726 C183.4089,158.4286 197.7699,152.0816 213.5779,151.4276 L213.5779,170.0926 Z M246.9289,181.6456 C239.4119,174.9646 229.7119,170.7176 219.0159,170.0926 L219.0159,151.4196 C234.8259,152.0816 249.1879,158.4286 260.1019,168.4726 L246.9289,181.6456 Z M250.7749,246.7566 C257.4599,239.2406 261.7049,229.5396 262.3229,218.8476 L280.9919,218.8476 C280.3329,234.6556 273.9919,249.0156 263.9479,259.9336 L250.7749,246.7566 Z M170.2729,218.8476 C170.8959,229.5396 175.1359,239.2366 181.8209,246.7566 L168.6449,259.9296 C158.6049,249.0156 152.2629,234.6556 151.6079,218.8476 L170.2729,218.8476 Z M181.8209,185.4956 C175.1399,193.0166 170.8999,202.7126 170.2729,213.4026 L151.6079,213.4026 C152.2679,197.5976 158.6119,183.2376 168.6449,172.3236 L181.8209,185.4956 Z M262.3229,213.4026 C261.6969,202.7086 257.4559,193.0126 250.7749,185.4956 L263.9479,172.3196 C273.9879,183.2376 280.3289,197.5976 280.9879,213.4026 L262.3229,213.4026 Z M340.8679,170.9866 C343.5219,178.2776 339.7589,186.3426 332.4679,188.9976 C325.1759,191.6516 317.1099,187.8896 314.4589,180.5996 C311.8059,173.3056 315.5629,165.2356 322.8539,162.5876 C330.1479,159.9266 338.2139,163.6906 340.8679,170.9866 Z M302.7149,213.4026 L285.9819,213.4026 C285.3169,196.2206 278.4149,180.6176 267.4789,168.7916 L279.3289,156.9416 C293.2869,171.7966 302.0419,191.5796 302.7149,213.4026 Z M100.9389,190.5856 C93.6479,187.9306 89.8809,179.8686 92.5359,172.5746 C95.1959,165.2826 103.2589,161.5186 110.5529,164.1756 C117.8439,166.8276 121.6069,174.8926 118.9469,182.1836 C116.2939,189.4796 108.2269,193.2396 100.9389,190.5856 Z M153.2709,156.9456 L165.1169,168.7956 C154.1779,180.6176 147.2789,196.2246 146.6159,213.4026 L129.8819,213.4026 C130.5629,191.5796 139.3169,171.7986 153.2709,156.9456 Z M98.9089,203.7626 C106.6739,203.7626 112.9689,210.0556 112.9649,217.8156 C112.9649,225.5766 106.6659,231.8736 98.9129,231.8736 C91.1529,231.8666 84.8509,225.5796 84.8509,217.8196 C84.8589,210.0556 91.1499,203.7626 98.9089,203.7626 Z M93.1099,262.9596 C90.4609,255.6636 94.2229,247.5996 101.5169,244.9466 C108.8029,242.2936 116.8769,246.0506 119.5259,253.3376 C122.1769,260.6356 118.4139,268.7046 111.1289,271.3646 C103.8349,274.0096 95.7679,270.2496 93.1099,262.9596 Z M129.8819,218.8476 L146.6139,218.8476 C147.2759,236.0286 154.1779,251.6316 165.1169,263.4606 L153.2709,275.3076 C139.3169,260.4506 130.5629,240.6726 129.8819,218.8476 Z M333.0479,243.3556 C340.3389,246.0046 344.1059,254.0766 341.4459,261.3696 C338.7899,268.6626 330.7259,272.4216 323.4339,269.7686 C316.1429,267.1186 312.3799,259.0556 315.0309,251.7616 C317.6849,244.4666 325.7579,240.7056 333.0479,243.3556 Z M279.3289,275.3076 L267.4789,263.4606 C278.4179,251.6356 285.3219,236.0286 285.9819,218.8476 L302.7149,218.8476 C302.0379,240.6726 293.2829,260.4576 279.3289,275.3076 Z M340.6829,336.6616 C371.5579,304.8236 388.8019,263.2006 389.4769,218.8476 L395.1039,218.8476 C394.3949,266.1066 375.2799,308.9666 344.6009,340.5826 L340.6829,336.6616 Z M219.0159,394.9356 L219.0159,389.3166 C263.3669,388.6316 304.9939,371.3866 336.8369,340.5066 L340.7549,344.4286 C309.1389,375.1076 266.2779,394.2226 219.0159,394.9356 Z M205.9449,409.6966 L207.4579,432.0476 L225.1449,432.0396 L226.6499,409.6966 C231.0479,409.4646 235.3939,409.0366 239.7059,408.5156 L245.0859,430.3016 L262.5029,427.2266 L260.1059,404.9256 C264.3809,403.9336 268.6139,402.8336 272.7749,401.5656 L281.8379,422.0496 L298.4569,415.9956 L292.2299,394.4696 C296.2599,392.7526 300.1949,390.8616 304.0779,388.8786 L316.6059,407.5406 L331.9189,398.6936 L322.0059,378.4936 C325.6629,376.1066 329.2559,373.6256 332.7349,371.0006 L348.3169,387.2136 L361.8669,375.8416 L348.5769,357.6486 C351.7599,354.6666 354.8419,351.5836 357.8239,348.4016 L376.0239,361.6926 L387.3899,348.1356 L371.1769,332.5616 C373.8009,329.0796 376.2779,325.4896 378.6689,321.8326 L398.8749,331.7436 L407.7099,316.4236 L389.0529,303.9026 C391.0309,300.0196 392.9249,296.0836 394.6459,292.0556 L416.1829,298.2816 L422.2179,281.6606 L401.7339,272.5986 C403.0049,268.4366 404.1059,264.2036 405.0979,259.9296 L427.4079,262.3246 L430.4699,244.9086 L408.6869,239.5346 C409.2049,235.2136 409.6369,230.8736 409.8639,226.4786 L432.2199,224.9726 L432.2199,207.2766 L409.8639,205.7696 C409.6369,201.3756 409.2049,197.0316 408.6869,192.7186 L430.4769,187.3426 L427.4019,169.9206 L405.0979,172.3196 C404.1059,168.0466 403.0049,163.8126 401.7339,159.6506 L422.2219,150.5886 L416.1709,133.9676 L394.6459,140.1946 C392.9249,136.1646 391.0309,132.2336 389.0529,128.3466 L407.7139,115.8276 L398.8669,100.5056 L378.6649,110.4196 C376.2779,106.7646 373.7969,103.1726 371.1769,99.6966 L387.3899,84.1096 L376.0139,70.5636 L357.8199,83.8486 C354.8419,80.6646 351.7599,77.5786 348.5769,74.6046 L361.8669,56.4086 L348.3119,45.0376 L332.7339,61.2466 C329.2559,58.6266 325.6629,56.1466 322.0059,53.7596 L331.9189,33.5566 L316.5959,24.7166 L304.0779,43.3746 C300.1949,41.3926 296.2599,39.5036 292.2339,37.7826 L298.4569,16.2536 L281.8359,10.2106 L272.7739,30.6896 C268.6139,29.4156 264.3809,28.3156 260.1059,27.3266 L262.5029,5.0236 L245.0819,1.9546 L239.7059,23.7346 C235.3939,23.2106 231.0519,22.7856 226.6579,22.5556 L225.1449,0.2086 L207.4559,0.2086 L205.9449,22.5556 C201.5499,22.7856 197.2109,23.2106 192.8949,23.7346 L187.5149,1.9516 L170.0929,5.0276 L172.4909,27.3226 C168.2189,28.3156 163.9869,29.4156 159.8259,30.6856 L150.7649,10.2036 L134.1399,16.2536 L140.3659,37.7756 C136.3399,39.4956 132.4049,41.3846 128.5229,43.3676 L116.0009,24.7096 L100.6809,33.5566 L110.5879,53.7556 C106.9329,56.1386 103.3399,58.6166 99.8629,61.2406 L84.2799,45.0346 L70.7379,56.4086 L84.0199,74.6006 C80.8319,77.5756 77.7499,80.6586 74.7759,83.8406 L56.5789,70.5566 L45.2099,84.1096 L61.4149,99.6856 C58.7949,103.1646 56.3139,106.7566 53.9279,110.4116 L33.7279,100.5016 L24.8879,115.8276 L43.5389,128.3446 C41.5609,132.2256 39.6679,136.1646 37.9459,140.1906 L16.4259,133.9636 L10.3819,150.5886 L30.8579,159.6486 C29.5849,163.8106 28.4839,168.0426 27.4939,172.3156 L5.1939,169.9206 L2.1269,187.3426 L23.9029,192.7186 C23.3789,197.0316 22.9559,201.3756 22.7239,205.7736 L0.3769,207.2766 L0.3809,224.9706 L22.7239,226.4786 C22.9559,230.8736 23.3789,235.2136 23.9029,239.5346 L2.1229,244.9106 L5.1969,262.3276 L27.4939,259.9336 C28.4839,264.2066 29.5849,268.4406 30.8579,272.6016 L10.3739,281.6636 L16.4259,298.2816 L37.9419,292.0616 C39.6679,296.0836 41.5609,300.0196 43.5389,303.9066 L24.8859,316.4276 L33.7279,331.7396 L53.9239,321.8366 C56.3139,325.4916 58.7949,329.0836 61.4149,332.5616 L45.2059,348.1436 L56.5789,361.6866 L74.7719,348.4056 C77.7499,351.5876 80.8319,354.6746 84.0199,357.6526 L70.7289,375.8476 L84.2799,387.2116 L99.8589,371.0046 C103.3399,373.6296 106.9329,376.1106 110.5879,378.5006 L100.6809,398.6996 L116.0009,407.5366 L128.5179,388.8806 C132.4049,390.8636 136.3399,392.7526 140.3659,394.4736 L134.1399,416.0026 L150.7649,422.0416 L159.8219,401.5676 C163.9839,402.8336 168.2189,403.9376 172.4909,404.9256 L170.1009,427.2306 L187.5149,430.2936 L192.8909,408.5156 C197.2069,409.0366 201.5499,409.4646 205.9449,409.6966 Z" id="Fill-45" fill="#000000" mask="url(#mask-14)"></path>
            </g>
        </g>
        <g id="Group-51" transform="translate(149.000000, 520.500000) rotate(-270.000000) translate(-149.000000, -520.500000) translate(-366.500000, 368.500000)">
            <g id="Group-13" transform="translate(0.000000, 166.960000)">
                <mask id="mask-16" fill="white">
                    <use xlink:href="#path-15"></use>
                </mask>
                <g id="Clip-12"></g>
                <path d="M121.8506,219.4374 C68.1716,219.4374 24.5006,175.7624 24.5006,122.0804 C24.5006,96.0744 34.6276,71.6304 53.0126,53.2394 C71.4016,34.8524 95.8486,24.7264 121.8506,24.7264 C147.8606,24.7264 172.3076,34.8524 190.6956,53.2404 C209.0816,71.6304 219.2116,96.0744 219.2116,122.0804 C219.2116,175.7624 175.5376,219.4294 121.8506,219.4374 Z M115.0186,243.2084 L128.6806,243.2084 L129.6786,228.4144 C130.6576,228.3404 131.6396,228.2884 132.6126,228.1874 L136.1606,242.5534 L149.6066,240.1804 L148.0306,225.4744 C148.9816,225.2294 149.9216,224.9544 150.8656,224.6894 L156.8626,238.2374 L169.6946,233.5674 L165.5716,219.3194 C166.4646,218.9134 167.3646,218.5224 168.2426,218.0964 L176.4976,230.3954 L188.3346,223.5634 L181.7956,210.2424 C182.6026,209.6904 183.3876,209.1124 184.1786,208.5434 L194.4786,219.2614 L204.9426,210.4714 L196.1736,198.4664 C196.8716,197.7904 197.5606,197.0974 198.2416,196.4014 L210.2536,205.1734 L219.0296,194.7044 L208.3146,184.4124 C208.8886,183.6154 209.4606,182.8284 210.0146,182.0224 L223.3376,188.5624 L230.1666,176.7274 L217.8676,168.4774 C218.2966,167.5954 218.6896,166.6964 219.0896,165.8054 L233.3416,169.9254 L238.0136,157.0914 L224.4596,151.0924 C224.7286,150.1514 225.0006,149.2104 225.2456,148.2614 L239.9546,149.8414 L242.3286,136.3864 L227.9616,132.8434 C228.0586,131.8694 228.1166,130.8864 228.1886,129.9084 L242.9816,128.9124 L242.9816,115.2484 L228.1926,114.2494 C228.1216,113.2714 228.0666,112.2914 227.9696,111.3144 L242.3286,107.7734 L239.9546,94.3204 L225.2836,95.8984 C225.0436,94.9414 224.7636,93.9974 224.4956,93.0474 L238.0136,87.0724 L233.3456,74.2324 L219.1556,78.3414 C218.7486,77.4404 218.3416,76.5444 217.9106,75.6554 L230.1696,67.4284 L223.3416,55.5954 L210.0646,62.1174 C209.5116,61.3064 208.9416,60.5034 208.3656,59.7074 L219.0356,49.4484 L210.2536,38.9864 L198.2826,47.7314 C197.9376,47.3764 197.6156,47.0154 197.2666,46.6674 C196.9186,46.3194 196.5566,45.9974 196.2036,45.6524 L204.9506,33.6804 L194.4826,24.8984 L184.2276,35.5694 C183.4266,34.9914 182.6316,34.4264 181.8176,33.8704 L188.3346,20.5904 L176.5016,13.7634 L168.2796,26.0244 C167.3936,25.5924 166.4946,25.1884 165.5926,24.7834 L169.7026,10.5884 L156.8676,5.9184 L150.8886,19.4414 C149.9366,19.1724 148.9936,18.8944 148.0346,18.6504 L149.6146,3.9714 L136.1646,1.6024 L132.6216,15.9644 C131.6516,15.8684 130.6616,15.8154 129.6826,15.7424 L128.6866,0.9494 L115.0266,0.9494 L114.0266,15.7424 C113.0476,15.8154 112.0656,15.8684 111.0906,15.9644 L107.5476,1.6024 L94.1006,3.9754 L95.6726,18.6504 C94.7156,18.8904 93.7716,19.1684 92.8246,19.4394 L86.8486,5.9184 L74.0116,10.5884 L78.1206,24.7774 C77.2186,25.1854 76.3196,25.5884 75.4356,26.0244 L67.2066,13.7584 L55.3736,20.5904 L61.8916,33.8704 C61.0826,34.4264 60.2786,34.9914 59.4816,35.5654 L49.2276,24.8954 L38.7636,33.6764 L47.5066,45.6484 C47.1556,45.9914 46.7896,46.3194 46.4386,46.6674 C46.0946,47.0114 45.7756,47.3764 45.4316,47.7254 L33.4586,38.9824 L24.6726,49.4444 L35.3476,59.7014 C34.7706,60.5004 34.2016,61.2984 33.6456,62.1094 L20.3676,55.5914 L13.5386,67.4204 L25.7986,75.6494 C25.3686,76.5374 24.9596,77.4344 24.5626,78.3374 L10.3716,74.2304 L5.6956,87.0644 L19.2166,93.0404 C18.9486,93.9924 18.6646,94.9374 18.4316,95.8944 L3.7526,94.3144 L1.3766,107.7654 L15.7406,111.3124 C15.6436,112.2834 15.5856,113.2694 15.5146,114.2484 L0.7236,115.2404 L0.7236,128.9044 L15.5216,129.9024 C15.5926,130.8804 15.6476,131.8654 15.7446,132.8374 L1.3766,136.3824 L3.7526,149.8354 L18.4606,148.2494 C18.7076,149.2074 18.9776,150.1474 19.2426,151.0884 L5.6896,157.0834 L10.3636,169.9194 L24.6126,165.7974 C25.0176,166.6924 25.4046,167.5894 25.8376,168.4714 L13.5386,176.7194 L20.3616,188.5564 L33.6886,182.0184 C34.2396,182.8244 34.8176,183.6134 35.3876,184.4044 L24.6686,194.7004 L33.4516,205.1674 L45.4636,196.4004 C46.1416,197.0934 46.8326,197.7864 47.5316,198.4624 L38.7566,210.4714 L49.2236,219.2564 L59.5226,208.5364 C60.3136,209.1104 61.0986,209.6864 61.9066,210.2364 L55.3666,223.5634 L67.2016,230.3924 L75.4516,218.0964 C76.3326,218.5184 77.2336,218.9134 78.1266,219.3154 L73.9966,233.5634 L86.8406,238.2334 L92.8376,224.6854 C93.7796,224.9544 94.7156,225.2294 95.6726,225.4704 L94.0886,240.1764 L107.5476,242.5534 L111.0906,228.1874 C112.0616,228.2884 113.0396,228.3404 114.0226,228.4144 L115.0186,243.2084 Z" id="Fill-11" fill="#000000" mask="url(#mask-16)"></path>
            </g>
            <g id="Group-16" transform="translate(154.000000, 290.960000)">
                <mask id="mask-18" fill="white">
                    <use xlink:href="#path-17"></use>
                </mask>
                <g id="Clip-15"></g>
                <path d="M60.6016,0.83 L28.8886,0.83 C27.9856,21.314 16.9846,39.169 0.7466,49.565 L16.6226,77.053 C42.3216,61.147 59.6596,33.051 60.6016,0.83" id="Fill-14" fill="#000000" mask="url(#mask-18)"></path>
            </g>
            <path d="M182.8887,286.2939 L214.6017,286.2939 C213.6597,254.0749 196.3217,225.9769 170.6227,210.0709 L154.7497,237.5589 C170.9847,247.9569 181.9857,265.8079 182.8887,286.2939" id="Fill-17" fill="#000000"></path>
            <g id="Group-21" transform="translate(29.000000, 290.960000)">
                <mask id="mask-20" fill="white">
                    <use xlink:href="#path-19"></use>
                </mask>
                <g id="Clip-20"></g>
                <path d="M31.8232,0.8261 L0.1072,0.8301 C1.0462,33.0471 18.3882,61.1471 44.0902,77.0531 L59.9592,49.5651 C43.7242,39.1661 32.7262,21.3101 31.8232,0.8261" id="Fill-19" fill="#000000" mask="url(#mask-20)"></path>
            </g>
            <path d="M121.8506,227.9375 C132.0066,227.9375 141.5696,230.4285 149.9966,234.8125 L165.8696,207.3155 C152.7726,200.2465 137.7816,196.2275 121.8506,196.2275 C105.9236,196.2275 90.9366,200.2465 77.8386,207.3115 L93.7156,234.8045 C102.1356,230.4285 111.7026,227.9375 121.8506,227.9375" id="Fill-22" fill="#000000"></path>
            <path d="M88.9658,237.5586 L73.0898,210.0716 C47.3888,225.9766 30.0458,254.0756 29.1078,286.2936 L60.8228,286.2936 C61.7268,265.8056 72.7248,247.9526 88.9658,237.5586" id="Fill-24" fill="#000000"></path>
            <g id="Group-28" transform="translate(65.000000, 232.960000)">
                <mask id="mask-22" fill="white">
                    <use xlink:href="#path-21"></use>
                </mask>
                <g id="Clip-27"></g>
                <path d="M5.4385,56.08 C5.4385,27.726 28.5045,4.662 56.8545,4.662 C85.2085,4.662 108.2685,27.726 108.2685,56.08 C108.2685,84.434 85.2085,107.498 56.8545,107.498 C28.5045,107.498 5.4385,84.434 5.4385,56.08 M56.8545,112.143 C87.7725,112.143 112.9175,86.998 112.9175,56.08 C112.9175,25.166 87.7725,0.017 56.8545,0.017 C25.9405,0.017 0.7925,25.166 0.7925,56.08 C0.7925,86.998 25.9405,112.143 56.8545,112.143" id="Fill-26" fill="#000000" mask="url(#mask-22)"></path>
            </g>
            <g id="Group-31" transform="translate(81.000000, 247.960000)">
                <mask id="mask-24" fill="white">
                    <use xlink:href="#path-23"></use>
                </mask>
                <g id="Clip-30"></g>
                <path d="M24.3594,41.08 C24.3594,31.968 31.7424,24.581 40.8544,24.581 C49.9664,24.581 57.3494,31.968 57.3494,41.08 C57.3494,50.192 49.9664,57.579 40.8544,57.579 C31.7424,57.579 24.3594,50.192 24.3594,41.08 M81.4974,41.08 C81.4974,18.637 63.3014,0.437 40.8544,0.437 C18.4114,0.437 0.2134,18.637 0.2134,41.08 C0.2134,63.523 18.4114,81.723 40.8544,81.723 C63.3014,81.723 81.4974,63.523 81.4974,41.08" id="Fill-29" fill="#000000" mask="url(#mask-24)"></path>
            </g>
            <path d="M761.3018,159.4287 C724.3718,159.4287 694.3268,129.3817 694.3268,92.4537 C694.3268,74.5637 701.2938,57.7437 713.9458,45.0947 C726.5958,32.4447 743.4138,25.4797 761.3018,25.4797 C798.2378,25.4797 828.2798,55.5227 828.2798,92.4537 C828.2798,129.3817 798.2378,159.4287 761.3018,159.4287 Z M737.5688,175.4237 L755.2398,178.5407 L757.8848,169.9497 C759.0228,169.9947 760.1558,170.0357 761.3018,170.0357 C762.4518,170.0357 763.5918,169.9947 764.7308,169.9497 L767.3738,178.5367 L785.0448,175.4237 L784.5948,166.4577 C786.7868,165.7667 788.9298,164.9777 791.0288,164.1027 L796.4518,171.2717 L811.9938,162.3007 L808.4808,153.9797 C810.2868,152.5927 812.0368,151.1327 813.7158,149.5957 L821.2858,154.4957 L832.8268,140.7527 L826.6838,134.1387 C827.9098,132.2247 829.0488,130.2537 830.1108,128.2297 L838.8938,130.2387 L845.0298,113.3777 L837.0258,109.2807 C837.5168,107.0687 837.9108,104.8207 838.2088,102.5377 L847.1338,101.4227 L847.1298,83.4827 L838.2088,82.3667 C837.9108,80.0867 837.5168,77.8397 837.0258,75.6277 L845.0218,71.5317 L838.8898,54.6687 L830.1108,56.6767 C829.0488,54.6517 827.9098,52.6797 826.6838,50.7647 L832.8218,44.1587 L821.2858,30.4117 L813.7118,35.3087 C812.0368,33.7707 810.2868,32.3117 808.4768,30.9247 L811.9868,22.6117 L796.4488,13.6397 L791.0248,20.8017 C788.9248,19.9277 786.7808,19.1387 784.5948,18.4497 L785.0448,9.4897 L767.3738,6.3737 L764.7288,14.9587 C763.5918,14.9077 762.4518,14.8727 761.3018,14.8727 C760.1558,14.8727 759.0148,14.9057 757.8768,14.9557 L755.2358,6.3737 L737.5648,9.4897 L738.0158,18.4247 C735.8258,19.1097 733.6638,19.8797 731.5488,20.7587 L726.1588,13.6437 L710.6188,22.6157 L714.1098,30.8857 C712.3078,32.2727 710.5528,33.7357 708.8638,35.2907 L701.3228,30.4197 L689.7878,44.1627 L695.8888,50.7297 C694.6498,52.6617 693.4948,54.6407 692.4418,56.6657 L683.7238,54.6717 L677.5838,71.5337 L685.5628,75.6207 C685.0718,77.8467 684.6768,80.0977 684.3828,82.3737 L675.4798,83.4857 L675.4798,101.4337 L684.3968,102.5437 C684.6978,104.8247 685.0888,107.0747 685.5798,109.2867 L677.5858,113.3817 L683.7238,130.2457 L692.4988,128.2357 C693.5548,130.2617 694.7038,132.2327 695.9258,134.1467 L689.7918,140.7527 L701.3228,154.4997 L708.9018,149.6077 C710.5798,151.1407 712.3238,152.6007 714.1308,153.9877 L710.6228,162.3007 L726.1648,171.2717 L731.5888,164.1117 C733.6858,164.9817 735.8298,165.7697 738.0228,166.4617 L737.5688,175.4237 Z" id="Fill-32" fill="#000000"></path>
            <path d="M729.5625,124.1914 C721.0885,115.7154 716.4215,104.4414 716.4215,92.4514 C716.4215,80.4564 721.0885,69.1824 729.5625,60.7064 C738.0365,52.2314 749.3065,47.5644 761.3015,47.5714 C786.0525,47.5714 806.1915,67.7024 806.1915,92.4514 C806.1795,117.1984 786.0415,137.3334 761.3015,137.3334 C749.3105,137.3374 738.0405,132.6694 729.5625,124.1914 M818.5675,92.4514 C818.5675,60.8804 792.8765,35.1984 761.3015,35.1984 C746.0095,35.1904 731.6275,41.1444 720.8105,51.9594 C710.0015,62.7704 704.0475,77.1514 704.0475,92.4514 C704.0475,107.7464 710.0015,122.1284 720.8175,132.9414 C731.6275,143.7574 746.0095,149.7104 761.3015,149.7084 C792.8675,149.7084 818.5535,124.0234 818.5675,92.4514" id="Fill-34" fill="#000000"></path>
            <path d="M187.083,150.249 C151.112,150.249 121.843,120.985 121.843,85.013 C121.843,67.584 128.634,51.203 140.952,38.883 C153.276,26.562 169.658,19.777 187.083,19.777 C223.054,19.777 252.318,49.041 252.318,85.013 C252.318,120.985 223.054,150.249 187.083,150.249 Z M163.967,165.83 L181.176,168.866 L183.753,160.497 C184.857,160.543 185.966,160.58 187.083,160.58 C188.201,160.58 189.313,160.543 190.421,160.497 L192.997,168.864 L210.212,165.83 L209.77,157.099 C211.903,156.424 213.992,155.654 216.036,154.806 L221.315,161.784 L236.457,153.044 L233.038,144.943 C234.794,143.591 236.5,142.172 238.132,140.673 L245.509,145.446 L256.746,132.06 L250.764,125.614 C251.957,123.75 253.072,121.834 254.104,119.861 L262.654,121.818 L268.636,105.395 L260.841,101.404 C261.32,99.247 261.699,97.061 261.991,94.838 L270.684,93.751 L270.684,76.273 L261.991,75.186 C261.699,72.969 261.32,70.777 260.841,68.624 L268.63,64.634 L262.654,48.21 L254.102,50.166 C253.072,48.192 251.957,46.273 250.764,44.409 L256.743,37.972 L245.509,24.583 L238.132,29.351 C236.496,27.853 234.794,26.433 233.034,25.082 L236.449,16.984 L221.312,8.248 L216.032,15.225 C213.988,14.371 211.899,13.604 209.767,12.931 L210.208,4.205 L192.995,1.169 L190.421,9.528 C189.31,9.485 188.201,9.445 187.083,9.445 C185.966,9.445 184.854,9.478 183.746,9.528 L181.172,1.169 L163.963,4.202 L164.4,12.905 C162.267,13.572 160.163,14.324 158.098,15.182 L152.854,8.248 L137.716,16.988 L141.115,25.042 C139.363,26.397 137.651,27.82 136.002,29.337 L128.657,24.587 L117.428,37.976 L123.366,44.371 C122.164,46.256 121.038,48.185 120.01,50.156 L111.517,48.213 L105.537,64.638 L113.309,68.617 C112.831,70.785 112.448,72.976 112.162,75.194 L103.487,76.28 L103.487,93.759 L112.178,94.845 C112.468,97.064 112.851,99.254 113.326,101.412 L105.541,105.397 L111.517,121.826 L120.065,119.865 C121.095,121.84 122.214,123.758 123.405,125.626 L117.43,132.06 L128.661,145.449 L136.043,140.681 C137.677,142.18 139.375,143.599 141.137,144.951 L137.719,153.044 L152.857,161.786 L158.141,154.808 C160.185,155.658 162.274,156.428 164.407,157.099 L163.967,165.83 Z" id="Fill-36" fill="#000000"></path>
            <path d="M164.7441,85.0127 C164.7441,72.6667 174.7461,62.6657 187.0831,62.6737 C199.4251,62.6737 209.4271,72.6747 209.4271,85.0127 C209.4231,97.3507 199.4251,107.3517 187.0831,107.3517 C174.7501,107.3557 164.7441,97.3507 164.7441,85.0127 M236.8301,85.0127 C236.8301,57.5397 214.5581,35.2697 187.0791,35.2697 C159.6041,35.2587 137.3401,57.5257 137.3401,85.0127 C137.3401,112.4867 159.6091,134.7637 187.0791,134.7517 C214.5581,134.7517 236.8221,112.4867 236.8301,85.0127" id="Fill-38" fill="#000000"></path>
            <g id="Group-42" transform="translate(708.000000, 164.960000)">
                <mask id="mask-26" fill="white">
                    <use xlink:href="#path-25"></use>
                </mask>
                <g id="Clip-41"></g>
                <path d="M156.6846,210.9951 L187.7506,279.8121 C177.8156,282.3421 167.4166,283.6941 156.7096,283.6941 C145.9986,283.6941 135.5986,282.3421 125.6666,279.8121 L156.6846,210.9951 Z M110.6166,184.3681 L66.6066,245.6071 C52.1436,230.7711 41.3146,212.3921 35.5396,191.9141 L110.6166,184.3681 Z M110.7126,131.1641 L35.4966,123.6481 C41.1096,103.6011 51.6696,85.1911 66.5776,69.9061 L110.7126,131.1641 Z M202.6996,131.2691 L246.8116,69.9671 C261.2786,84.8031 272.1036,103.1821 277.8816,123.6681 L202.6996,131.2691 Z M277.8816,191.9121 C272.0996,212.3921 261.2746,230.7711 246.8076,245.6071 L202.7426,184.3581 L277.8816,191.9121 Z M156.7096,194.7311 C136.3066,194.7391 119.7666,178.1931 119.7666,157.7861 C119.7666,137.3711 136.2986,120.8331 156.7096,120.8391 C177.1196,120.8391 193.6666,137.3791 193.6666,157.7861 C193.6596,178.1931 177.1196,194.7311 156.7096,194.7311 Z M156.7096,31.8771 C167.4266,31.8771 177.8296,33.2321 187.7666,35.7641 L156.7456,104.7011 L125.6496,35.7231 C135.6816,33.1891 146.0916,31.8771 156.7096,31.8771 Z M113.3866,309.2161 L145.6426,314.9091 L151.5946,295.5871 C153.2926,295.6481 154.9936,295.7171 156.7096,295.7171 C158.4286,295.7171 160.1366,295.6481 161.8456,295.5871 L167.7916,314.9051 L200.0456,309.2161 L199.0336,289.0471 C202.2966,287.9891 205.5096,286.8091 208.6666,285.5231 L220.8606,301.6411 L249.2266,285.2651 L241.3406,266.5821 C244.0306,264.4831 246.6616,262.3151 249.1886,260.0281 L266.1906,271.0231 L287.2456,245.9381 L273.4586,231.0951 C275.2816,228.2111 276.9996,225.2631 278.6036,222.2391 L298.3146,226.7531 L309.5206,195.9761 L291.5496,186.7731 C292.2636,183.4481 292.8436,180.0751 293.3136,176.6661 L313.3636,174.1601 L313.3636,141.4111 L293.3136,138.9061 C292.8436,135.4971 292.2636,132.1231 291.5456,128.7971 L309.5126,119.5961 L298.3146,88.8251 L278.6036,93.3311 C276.9976,90.3101 275.2816,87.3591 273.4586,84.4741 L287.2376,69.6411 L266.1866,44.5531 L249.1846,55.5381 C246.6526,53.2531 244.0266,51.0831 241.3346,48.9861 L249.2126,30.3141 L220.8526,13.9401 L208.6636,30.0451 C205.5016,28.7551 202.2906,27.5751 199.0216,26.5211 L200.0406,6.3621 L167.7856,0.6771 L161.8376,19.9871 C160.1326,19.9221 158.4286,19.8541 156.7096,19.8541 C154.9966,19.8541 153.2816,19.9201 151.5766,19.9791 L145.6326,0.6811 L113.3786,6.3661 L114.3926,26.4721 C111.1166,27.5251 107.8796,28.6801 104.6966,29.9771 L92.5676,13.9441 L64.2056,30.3171 L72.0516,48.9151 C69.3606,51.0161 66.7146,53.1861 64.1626,55.5041 L47.2356,44.5601 L26.1886,69.6431 L39.9026,84.4161 C38.0676,87.3241 36.3176,90.2851 34.7116,93.3131 L15.1116,88.8331 L3.9056,119.6031 L21.8466,128.7931 C21.1326,132.1351 20.5456,135.5111 20.0796,138.9201 L0.0626,141.4191 L0.0626,174.1711 L20.1046,176.6741 C20.5746,180.0851 21.1546,183.4591 21.8726,186.7851 L3.9126,195.9821 L15.1116,226.7611 L34.8226,222.2511 C36.4256,225.2751 38.1446,228.2231 39.9666,231.1081 L26.1886,245.9421 L47.2396,271.0291 L64.2416,260.0401 C66.7726,262.3291 69.3996,264.4991 72.0906,266.5961 L64.2116,285.2651 L92.5736,301.6451 L104.7636,285.5331 C107.9216,286.8191 111.1376,287.9951 114.4046,289.0531 L113.3866,309.2161 Z" id="Fill-40" fill="#000000" mask="url(#mask-26)"></path>
            </g>
            <g id="Group-47" transform="translate(258.000000, 0.960000)">
                <mask id="mask-28" fill="white">
                    <use xlink:href="#path-27"></use>
                </mask>
                <g id="Clip-46"></g>
                <path d="M91.8379,344.4326 L95.8139,340.4546 C126.4099,370.1176 167.8629,388.6026 213.5779,389.3126 L213.5779,394.9356 C166.3149,394.2226 123.4569,375.1106 91.8379,344.4326 Z M213.5779,37.3166 L213.5779,42.9376 C169.2289,43.6196 127.5979,60.8606 95.7559,91.7416 L91.8379,87.8196 C123.4529,57.1426 166.3149,38.0266 213.5779,37.3166 Z M340.7549,87.8236 L336.8329,91.7416 C304.9939,60.8646 263.3669,43.6216 219.0159,42.9376 L219.0159,37.3166 C266.2779,38.0306 309.1389,57.1466 340.7549,87.8236 Z M219.0159,373.5716 C259.1659,372.8946 296.8399,357.2866 325.7079,329.3816 L329.7729,333.4496 C299.8179,362.4466 260.7009,378.6476 219.0159,379.3316 L219.0159,373.5716 Z M106.9369,329.3336 C134.6849,356.1446 172.2039,372.8656 213.5779,373.5716 L213.5779,379.3286 C170.6169,378.6186 131.6579,361.2506 102.8699,333.3966 L106.9369,329.3336 Z M37.4839,218.8476 L43.1089,218.8476 C43.8169,264.5576 62.3089,306.0106 91.9679,336.6086 L87.9909,340.5826 C57.3139,308.9666 38.1939,266.1106 37.4839,218.8476 Z M91.9089,95.5876 C61.0319,127.4296 43.7909,169.0526 43.1069,213.4026 L37.4839,213.4026 C38.1939,166.1406 57.3139,123.2856 87.9909,91.6656 L91.9089,95.5876 Z M213.5779,58.6776 C173.4309,59.3556 135.7519,74.9576 106.8869,102.8686 L102.8179,98.7996 C132.7749,69.8076 171.8959,53.6016 213.5779,52.9236 L213.5779,58.6776 Z M325.7079,102.8706 C296.8399,74.9616 259.1579,59.3586 219.0159,58.6776 L219.0159,52.9236 C260.6969,53.6046 299.8179,69.8076 329.7729,98.8036 L325.7079,102.8706 Z M389.4769,213.4026 C388.8019,169.0566 371.5579,127.4336 340.6789,95.5876 L344.6009,91.6696 C375.2779,123.2856 394.3949,166.1466 395.1039,213.4026 L389.4769,213.4026 Z M329.5519,325.5366 C357.4589,296.6716 373.0669,258.9926 373.7389,218.8476 L379.4959,218.8476 C378.8159,260.5296 362.6159,299.6506 333.6209,329.6046 L329.5519,325.5366 Z M219.0159,361.1996 C257.0359,360.4946 291.4679,345.1896 316.9609,320.6316 L322.1809,325.8506 C294.2559,352.8186 257.8289,367.9096 219.0159,368.5816 L219.0159,361.1996 Z M115.6349,320.6316 C141.1259,345.1936 175.5559,360.4946 213.5779,361.1996 L213.5779,368.5816 C173.5789,367.8716 137.3099,351.7096 110.4639,325.8086 L115.6349,320.6316 Z M58.8449,218.8476 C59.5549,260.2156 76.2759,297.7396 103.0909,325.4856 L99.0249,329.5506 C71.1689,300.7656 53.8019,261.8056 53.0959,218.8476 L58.8449,218.8476 Z M103.0399,106.7146 C75.1259,135.5776 59.5219,173.2546 58.8449,213.4026 L53.0919,213.4026 C53.7729,171.7256 69.9769,132.5986 98.9679,102.6466 L103.0399,106.7146 Z M213.5779,71.0546 C175.5559,71.7576 141.1259,87.0636 115.6349,111.6196 L110.4139,106.3986 C138.3379,79.4316 174.7669,64.3446 213.5779,63.6696 L213.5779,71.0546 Z M316.9569,111.6226 C291.4679,87.0636 257.0359,71.7576 219.0159,71.0546 L219.0159,63.6696 C257.8289,64.3446 294.2519,79.4356 322.1729,106.4026 L316.9569,111.6226 Z M373.7389,213.4026 C373.0669,173.2586 357.4589,135.5846 329.5519,106.7186 L333.6209,102.6536 C362.6139,132.6026 378.8159,171.7256 379.4959,213.4026 L373.7389,213.4026 Z M320.8039,316.7856 C345.3569,291.2956 360.6629,256.8686 361.3669,218.8476 L368.7499,218.8476 C368.0769,257.6576 352.9889,294.0806 326.0229,322.0046 L320.8039,316.7856 Z M298.9589,302.9876 C293.0149,298.0056 292.2339,289.1376 297.2189,283.1936 C302.2059,277.2466 311.0819,276.4776 317.0279,281.4546 C322.9679,286.4426 323.7489,295.3146 318.7559,301.2606 C313.7629,307.2036 304.9009,307.9766 298.9589,302.9876 Z M264.5939,325.8356 C260.7149,319.1196 263.0119,310.5196 269.7339,306.6406 C276.4499,302.7596 285.0579,305.0706 288.9369,311.7816 C292.8169,318.4986 290.5129,327.0986 283.7929,330.9836 C277.0669,334.8586 268.4709,332.5576 264.5939,325.8356 Z M224.4919,335.5506 C223.1449,327.9116 228.2419,320.6206 235.8809,319.2726 C243.5269,317.9206 250.8209,323.0366 252.1769,330.6716 C253.5209,338.3106 248.4149,345.6046 240.7699,346.9536 C233.1249,348.2966 225.8369,343.1976 224.4919,335.5506 Z M219.0159,285.8216 C236.1999,285.1546 251.8079,278.2506 263.6329,267.3076 L275.4789,279.1536 C260.6259,293.1116 240.8449,301.8626 219.0159,302.5426 L219.0159,285.8216 Z M157.1169,279.1536 L168.9639,267.3076 C180.7889,278.2506 196.3929,285.1546 213.5779,285.8216 L213.5779,302.5426 C191.7509,301.8666 171.9709,293.1116 157.1169,279.1536 Z M183.4839,330.9616 C184.8279,323.3276 192.1129,318.2146 199.7519,319.5606 C207.3979,320.9106 212.5029,328.2076 211.1649,335.8446 C209.8169,343.4876 202.5259,348.5986 194.8759,347.2456 C187.2379,345.8946 182.1329,338.6086 183.4839,330.9616 Z M146.5179,312.6296 C150.3919,305.9066 158.9869,303.6006 165.7049,307.4836 C172.4269,311.3616 174.7329,319.9646 170.8569,326.6826 C166.9779,333.4026 158.3779,335.7116 151.6579,331.8266 C144.9359,327.9396 142.6309,319.3516 146.5179,312.6296 Z M116.3139,302.5546 C111.3259,296.6046 112.1029,287.7436 118.0489,282.7556 C123.9909,277.7716 132.8589,278.5366 137.8429,284.4816 C142.8319,290.4276 142.0549,299.3036 136.1139,304.2886 C130.1719,309.2766 121.2989,308.5006 116.3139,302.5546 Z M71.2239,218.8476 C71.9259,256.8686 87.2319,291.2996 111.7869,316.7886 L106.6179,321.9576 C80.7109,295.1176 64.5439,258.8446 63.8379,218.8476 L71.2239,218.8476 Z M111.7889,115.4626 C87.2319,140.9546 71.9259,175.3836 71.2239,213.4026 L63.8379,213.4026 C64.5129,174.5946 79.6009,138.1696 106.5669,110.2456 L111.7889,115.4626 Z M135.0269,130.9536 C140.9719,135.9386 141.7489,144.8066 136.7599,150.7506 C131.7749,156.6906 122.9019,157.4716 116.9619,152.4866 C111.0199,147.5006 110.2379,138.6316 115.2229,132.6836 C120.2199,126.7416 129.0809,125.9676 135.0269,130.9536 Z M169.3909,108.1096 C173.2679,114.8256 170.9669,123.4246 164.2469,127.2996 C157.5259,131.1796 148.9259,128.8816 145.0499,122.1606 C141.1689,115.4406 143.4699,106.8386 150.1919,102.9606 C156.9159,99.0856 165.5119,101.3866 169.3909,108.1096 Z M209.4939,98.3946 C210.8379,106.0336 205.7379,113.3246 198.1009,114.6686 C190.4579,116.0126 183.1589,110.9186 181.8139,103.2726 C180.4659,95.6296 185.5709,88.3396 193.2129,86.9926 C200.8589,85.6446 208.1469,90.7476 209.4939,98.3946 Z M213.5779,146.4346 C196.3929,147.0986 180.7889,154.0016 168.9639,164.9456 L157.1169,153.0986 C171.9709,139.1446 191.7509,130.3906 213.5779,129.7136 L213.5779,146.4346 Z M275.4789,153.0946 L263.6289,164.9456 C251.8079,153.9976 236.1999,147.0946 219.0159,146.4346 L219.0159,129.7136 C240.8449,130.3946 260.6259,139.1446 275.4789,153.0946 Z M250.5019,102.9786 C249.1539,110.6176 241.8649,115.7306 234.2239,114.3746 C226.5849,113.0266 221.4739,105.7396 222.8209,98.1006 C224.1699,90.4576 231.4599,85.3536 239.1029,86.6986 C246.7489,88.0496 251.8499,95.3366 250.5019,102.9786 Z M287.4709,121.3156 C283.5879,128.0316 274.9909,130.3356 268.2739,126.4586 C261.5539,122.5766 259.2489,113.9846 263.1259,107.2636 C267.0089,100.5416 275.6049,98.2376 282.3229,102.1156 C289.0469,105.9966 291.3519,114.5926 287.4709,121.3156 Z M317.6709,131.3896 C322.6559,137.3346 321.8829,146.2036 315.9349,151.1886 C309.9909,156.1736 301.1229,155.4006 296.1379,149.4576 C291.1499,143.5086 291.9259,134.6486 297.8679,129.6596 C303.8119,124.6656 312.6799,125.4436 317.6709,131.3896 Z M361.3669,213.4026 C360.6629,175.3836 345.3569,140.9586 320.8039,115.4666 L326.0229,110.2496 C352.9849,138.1696 368.0729,174.5886 368.7499,213.4026 L361.3669,213.4026 Z M321.0189,216.1266 C321.0189,208.3676 327.3129,202.0746 335.0689,202.0746 C342.8329,202.0746 349.1239,208.3676 349.1239,216.1266 C349.1239,223.8916 342.8329,230.1786 335.0689,230.1786 C327.3129,230.1786 321.0189,223.8916 321.0189,216.1266 Z M219.0159,262.1596 C229.7119,261.5336 239.4079,257.2876 246.9289,250.6026 L260.1019,263.7806 C249.1879,273.8246 234.8259,280.1726 219.0159,280.8286 L219.0159,262.1596 Z M185.6679,250.6026 C193.1849,257.2876 202.8849,261.5336 213.5779,262.1596 L213.5779,280.8286 C197.7699,280.1726 183.4089,273.8246 172.4909,263.7806 L185.6679,250.6026 Z M213.5779,170.0926 C202.8799,170.7196 193.1809,174.9646 185.6679,181.6496 L172.4909,168.4726 C183.4089,158.4286 197.7699,152.0816 213.5779,151.4276 L213.5779,170.0926 Z M246.9289,181.6456 C239.4119,174.9646 229.7119,170.7176 219.0159,170.0926 L219.0159,151.4196 C234.8259,152.0816 249.1879,158.4286 260.1019,168.4726 L246.9289,181.6456 Z M250.7749,246.7566 C257.4599,239.2406 261.7049,229.5396 262.3229,218.8476 L280.9919,218.8476 C280.3329,234.6556 273.9919,249.0156 263.9479,259.9336 L250.7749,246.7566 Z M170.2729,218.8476 C170.8959,229.5396 175.1359,239.2366 181.8209,246.7566 L168.6449,259.9296 C158.6049,249.0156 152.2629,234.6556 151.6079,218.8476 L170.2729,218.8476 Z M181.8209,185.4956 C175.1399,193.0166 170.8999,202.7126 170.2729,213.4026 L151.6079,213.4026 C152.2679,197.5976 158.6119,183.2376 168.6449,172.3236 L181.8209,185.4956 Z M262.3229,213.4026 C261.6969,202.7086 257.4559,193.0126 250.7749,185.4956 L263.9479,172.3196 C273.9879,183.2376 280.3289,197.5976 280.9879,213.4026 L262.3229,213.4026 Z M340.8679,170.9866 C343.5219,178.2776 339.7589,186.3426 332.4679,188.9976 C325.1759,191.6516 317.1099,187.8896 314.4589,180.5996 C311.8059,173.3056 315.5629,165.2356 322.8539,162.5876 C330.1479,159.9266 338.2139,163.6906 340.8679,170.9866 Z M302.7149,213.4026 L285.9819,213.4026 C285.3169,196.2206 278.4149,180.6176 267.4789,168.7916 L279.3289,156.9416 C293.2869,171.7966 302.0419,191.5796 302.7149,213.4026 Z M100.9389,190.5856 C93.6479,187.9306 89.8809,179.8686 92.5359,172.5746 C95.1959,165.2826 103.2589,161.5186 110.5529,164.1756 C117.8439,166.8276 121.6069,174.8926 118.9469,182.1836 C116.2939,189.4796 108.2269,193.2396 100.9389,190.5856 Z M153.2709,156.9456 L165.1169,168.7956 C154.1779,180.6176 147.2789,196.2246 146.6159,213.4026 L129.8819,213.4026 C130.5629,191.5796 139.3169,171.7986 153.2709,156.9456 Z M98.9089,203.7626 C106.6739,203.7626 112.9689,210.0556 112.9649,217.8156 C112.9649,225.5766 106.6659,231.8736 98.9129,231.8736 C91.1529,231.8666 84.8509,225.5796 84.8509,217.8196 C84.8589,210.0556 91.1499,203.7626 98.9089,203.7626 Z M93.1099,262.9596 C90.4609,255.6636 94.2229,247.5996 101.5169,244.9466 C108.8029,242.2936 116.8769,246.0506 119.5259,253.3376 C122.1769,260.6356 118.4139,268.7046 111.1289,271.3646 C103.8349,274.0096 95.7679,270.2496 93.1099,262.9596 Z M129.8819,218.8476 L146.6139,218.8476 C147.2759,236.0286 154.1779,251.6316 165.1169,263.4606 L153.2709,275.3076 C139.3169,260.4506 130.5629,240.6726 129.8819,218.8476 Z M333.0479,243.3556 C340.3389,246.0046 344.1059,254.0766 341.4459,261.3696 C338.7899,268.6626 330.7259,272.4216 323.4339,269.7686 C316.1429,267.1186 312.3799,259.0556 315.0309,251.7616 C317.6849,244.4666 325.7579,240.7056 333.0479,243.3556 Z M279.3289,275.3076 L267.4789,263.4606 C278.4179,251.6356 285.3219,236.0286 285.9819,218.8476 L302.7149,218.8476 C302.0379,240.6726 293.2829,260.4576 279.3289,275.3076 Z M340.6829,336.6616 C371.5579,304.8236 388.8019,263.2006 389.4769,218.8476 L395.1039,218.8476 C394.3949,266.1066 375.2799,308.9666 344.6009,340.5826 L340.6829,336.6616 Z M219.0159,394.9356 L219.0159,389.3166 C263.3669,388.6316 304.9939,371.3866 336.8369,340.5066 L340.7549,344.4286 C309.1389,375.1076 266.2779,394.2226 219.0159,394.9356 Z M205.9449,409.6966 L207.4579,432.0476 L225.1449,432.0396 L226.6499,409.6966 C231.0479,409.4646 235.3939,409.0366 239.7059,408.5156 L245.0859,430.3016 L262.5029,427.2266 L260.1059,404.9256 C264.3809,403.9336 268.6139,402.8336 272.7749,401.5656 L281.8379,422.0496 L298.4569,415.9956 L292.2299,394.4696 C296.2599,392.7526 300.1949,390.8616 304.0779,388.8786 L316.6059,407.5406 L331.9189,398.6936 L322.0059,378.4936 C325.6629,376.1066 329.2559,373.6256 332.7349,371.0006 L348.3169,387.2136 L361.8669,375.8416 L348.5769,357.6486 C351.7599,354.6666 354.8419,351.5836 357.8239,348.4016 L376.0239,361.6926 L387.3899,348.1356 L371.1769,332.5616 C373.8009,329.0796 376.2779,325.4896 378.6689,321.8326 L398.8749,331.7436 L407.7099,316.4236 L389.0529,303.9026 C391.0309,300.0196 392.9249,296.0836 394.6459,292.0556 L416.1829,298.2816 L422.2179,281.6606 L401.7339,272.5986 C403.0049,268.4366 404.1059,264.2036 405.0979,259.9296 L427.4079,262.3246 L430.4699,244.9086 L408.6869,239.5346 C409.2049,235.2136 409.6369,230.8736 409.8639,226.4786 L432.2199,224.9726 L432.2199,207.2766 L409.8639,205.7696 C409.6369,201.3756 409.2049,197.0316 408.6869,192.7186 L430.4769,187.3426 L427.4019,169.9206 L405.0979,172.3196 C404.1059,168.0466 403.0049,163.8126 401.7339,159.6506 L422.2219,150.5886 L416.1709,133.9676 L394.6459,140.1946 C392.9249,136.1646 391.0309,132.2336 389.0529,128.3466 L407.7139,115.8276 L398.8669,100.5056 L378.6649,110.4196 C376.2779,106.7646 373.7969,103.1726 371.1769,99.6966 L387.3899,84.1096 L376.0139,70.5636 L357.8199,83.8486 C354.8419,80.6646 351.7599,77.5786 348.5769,74.6046 L361.8669,56.4086 L348.3119,45.0376 L332.7339,61.2466 C329.2559,58.6266 325.6629,56.1466 322.0059,53.7596 L331.9189,33.5566 L316.5959,24.7166 L304.0779,43.3746 C300.1949,41.3926 296.2599,39.5036 292.2339,37.7826 L298.4569,16.2536 L281.8359,10.2106 L272.7739,30.6896 C268.6139,29.4156 264.3809,28.3156 260.1059,27.3266 L262.5029,5.0236 L245.0819,1.9546 L239.7059,23.7346 C235.3939,23.2106 231.0519,22.7856 226.6579,22.5556 L225.1449,0.2086 L207.4559,0.2086 L205.9449,22.5556 C201.5499,22.7856 197.2109,23.2106 192.8949,23.7346 L187.5149,1.9516 L170.0929,5.0276 L172.4909,27.3226 C168.2189,28.3156 163.9869,29.4156 159.8259,30.6856 L150.7649,10.2036 L134.1399,16.2536 L140.3659,37.7756 C136.3399,39.4956 132.4049,41.3846 128.5229,43.3676 L116.0009,24.7096 L100.6809,33.5566 L110.5879,53.7556 C106.9329,56.1386 103.3399,58.6166 99.8629,61.2406 L84.2799,45.0346 L70.7379,56.4086 L84.0199,74.6006 C80.8319,77.5756 77.7499,80.6586 74.7759,83.8406 L56.5789,70.5566 L45.2099,84.1096 L61.4149,99.6856 C58.7949,103.1646 56.3139,106.7566 53.9279,110.4116 L33.7279,100.5016 L24.8879,115.8276 L43.5389,128.3446 C41.5609,132.2256 39.6679,136.1646 37.9459,140.1906 L16.4259,133.9636 L10.3819,150.5886 L30.8579,159.6486 C29.5849,163.8106 28.4839,168.0426 27.4939,172.3156 L5.1939,169.9206 L2.1269,187.3426 L23.9029,192.7186 C23.3789,197.0316 22.9559,201.3756 22.7239,205.7736 L0.3769,207.2766 L0.3809,224.9706 L22.7239,226.4786 C22.9559,230.8736 23.3789,235.2136 23.9029,239.5346 L2.1229,244.9106 L5.1969,262.3276 L27.4939,259.9336 C28.4839,264.2066 29.5849,268.4406 30.8579,272.6016 L10.3739,281.6636 L16.4259,298.2816 L37.9419,292.0616 C39.6679,296.0836 41.5609,300.0196 43.5389,303.9066 L24.8859,316.4276 L33.7279,331.7396 L53.9239,321.8366 C56.3139,325.4916 58.7949,329.0836 61.4149,332.5616 L45.2059,348.1436 L56.5789,361.6866 L74.7719,348.4056 C77.7499,351.5876 80.8319,354.6746 84.0199,357.6526 L70.7289,375.8476 L84.2799,387.2116 L99.8589,371.0046 C103.3399,373.6296 106.9329,376.1106 110.5879,378.5006 L100.6809,398.6996 L116.0009,407.5366 L128.5179,388.8806 C132.4049,390.8636 136.3399,392.7526 140.3659,394.4736 L134.1399,416.0026 L150.7649,422.0416 L159.8219,401.5676 C163.9839,402.8336 168.2189,403.9376 172.4909,404.9256 L170.1009,427.2306 L187.5149,430.2936 L192.8909,408.5156 C197.2069,409.0366 201.5499,409.4646 205.9449,409.6966 Z" id="Fill-45" fill="#000000" mask="url(#mask-28)"></path>
            </g>
        </g>
    </g>
</svg>